<svg width="952" height="164" viewBox="0 0 952 164" fill="none" xmlns="http://www.w3.org/2000/svg">
<path d="M0.985883 0.190573H43.1362C53.6572 0.190573 62.58 1.32257 69.9047 3.58658C77.3626 5.7174 83.3555 9.91247 87.8835 16.1718C92.4115 22.4311 94.6755 31.2207 94.6755 42.5407C94.6755 52.1294 92.6113 59.5873 88.4828 64.9143C84.3544 70.2414 78.4946 73.6374 70.9035 75.1023C80.2259 76.3009 87.3508 80.2296 92.2784 86.8885C97.2059 93.5473 99.6697 102.603 99.6697 114.056C99.6697 146.019 83.3555 162 50.7273 162H0.985883V0.190573ZM43.7355 64.9143C51.3266 64.9143 56.4539 63.1831 59.1174 59.7205C61.9141 56.2579 63.3125 50.8642 63.3125 43.5395C63.3125 37.147 61.5812 32.3527 58.1186 29.1565C54.656 25.827 49.5953 24.1623 42.9365 24.1623H36.7438V64.9143H43.7355ZM44.3348 137.029C51.9259 137.029 57.2529 135.165 60.316 131.436C63.5122 127.574 65.1104 121.581 65.1104 113.457C65.1104 104.268 63.5122 97.8089 60.316 94.08C57.2529 90.3511 51.8593 88.4866 44.1351 88.4866H36.7438V137.029H44.3348ZM154.583 163.998C141.931 163.998 132.01 160.801 124.818 154.409C117.76 148.016 114.231 138.628 114.231 126.242V82.2939C114.231 69.9085 117.76 60.5195 124.818 54.1271C132.01 47.7346 141.931 44.5384 154.583 44.5384C167.235 44.5384 177.157 47.8012 184.348 54.3268C191.54 60.7193 195.135 70.0416 195.135 82.2939V126.242C195.135 138.494 191.54 147.883 184.348 154.409C177.157 160.801 167.235 163.998 154.583 163.998ZM154.783 142.423C157.846 142.423 159.977 141.291 161.175 139.027C162.374 136.63 162.973 133.101 162.973 128.44V80.0965C162.973 75.4353 162.374 71.9727 161.175 69.7087C159.977 67.3115 157.846 66.1129 154.783 66.1129C151.72 66.1129 149.522 67.3115 148.191 69.7087C146.992 72.1059 146.393 75.5685 146.393 80.0965V128.44C146.393 133.101 146.992 136.63 148.191 139.027C149.522 141.291 151.72 142.423 154.783 142.423ZM251.149 163.998C238.497 163.998 228.576 160.801 221.384 154.409C214.326 148.016 210.797 138.628 210.797 126.242V82.2939C210.797 69.9085 214.326 60.5195 221.384 54.1271C228.576 47.7346 238.497 44.5384 251.149 44.5384C263.801 44.5384 273.722 47.8012 280.914 54.3268C288.106 60.7193 291.701 70.0416 291.701 82.2939V126.242C291.701 138.494 288.106 147.883 280.914 154.409C273.722 160.801 263.801 163.998 251.149 163.998ZM251.349 142.423C254.412 142.423 256.543 141.291 257.741 139.027C258.94 136.63 259.539 133.101 259.539 128.44V80.0965C259.539 75.4353 258.94 71.9727 257.741 69.7087C256.543 67.3115 254.412 66.1129 251.349 66.1129C248.286 66.1129 246.088 67.3115 244.757 69.7087C243.558 72.1059 242.959 75.5685 242.959 80.0965V128.44C242.959 133.101 243.558 136.63 244.757 139.027C246.088 141.291 248.286 142.423 251.349 142.423ZM309.76 46.536H341.722V55.7252C349.446 48.1341 358.569 44.3386 369.09 44.3386C373.751 44.3386 377.746 45.5372 381.076 47.9343C384.538 50.1983 387.135 53.5943 388.867 58.1223C396.99 48.9332 406.779 44.3386 418.232 44.3386C425.024 44.3386 430.418 46.8689 434.413 51.9296C438.541 56.8572 440.606 63.6492 440.606 72.3056V162H408.643V75.7016C408.643 72.5054 408.044 70.2414 406.845 68.9096C405.78 67.4447 404.115 66.7122 401.851 66.7122C400.386 66.7122 398.655 67.1118 396.657 67.9108C394.66 68.5767 392.795 69.5755 391.064 70.9073V72.3056V162H359.501V75.7016C359.501 69.7087 357.171 66.7122 352.509 66.7122C349.446 66.7122 345.851 68.1106 341.722 70.9073V162H309.76V46.536ZM506.486 0.190573H536.85L546.439 94.4795L558.624 0.390347H582.396L595.181 93.8802L604.97 0.190573H634.935L615.557 162H584.394L570.61 64.3151L557.626 162H526.063L506.486 0.190573ZM650.769 0.190573H683.131V56.724C691.255 48.6002 700.71 44.5384 711.497 44.5384C718.156 44.5384 723.35 47.0687 727.079 52.1294C730.808 57.0569 732.673 63.516 732.673 71.5066V162H700.311V76.1012C700.311 73.1713 699.778 71.0405 698.713 69.7087C697.78 68.2438 696.116 67.5113 693.718 67.5113C690.922 67.5113 687.393 68.9096 683.131 71.7063V162H650.769V0.190573ZM752.207 4.38564H784.969V26.959H752.207V4.38564ZM752.407 46.536H784.969V162H752.407V46.536ZM840.833 163.199C832.309 163.199 825.717 162 821.056 159.603C816.395 157.072 813.132 153.477 811.267 148.816C809.403 144.154 808.471 138.095 808.471 130.637V67.9108H797.284V46.536H808.471V11.3774H841.432V46.536H857.813V67.9108H841.432V127.441C841.432 130.637 842.298 133.034 844.029 134.632C845.893 136.097 848.424 136.83 851.62 136.83C854.283 136.83 857.213 136.563 860.41 136.031V161.6C854.017 162.666 847.491 163.199 840.833 163.199ZM913.45 163.998C900.798 163.998 890.943 160.668 883.885 154.009C876.827 147.217 873.297 137.695 873.297 125.443V83.0929C873.297 70.8407 876.827 61.3852 883.885 54.7264C890.943 47.9344 900.798 44.5384 913.45 44.5384C926.235 44.5384 935.824 47.8012 942.216 54.3268C948.609 60.8525 951.805 70.4412 951.805 83.0929V106.266H905.46V128.44C905.46 136.696 908.123 140.825 913.45 140.825C919.044 140.825 921.84 137.096 921.84 129.638V117.452H951.805V128.639C951.805 140.226 948.409 149.015 941.617 155.008C934.958 161.001 925.569 163.998 913.45 163.998ZM921.84 91.0835V79.4972C921.84 75.2355 921.041 72.2391 919.443 70.5078C917.978 68.6433 915.914 67.7111 913.25 67.7111C910.72 67.7111 908.789 68.7099 907.457 70.7075C906.125 72.7052 905.46 76.2343 905.46 81.2951V91.0835H921.84Z" fill="black"/>
</svg>
