<svg width="796" height="1099" viewBox="0 0 796 1099" fill="none" xmlns="http://www.w3.org/2000/svg">
<rect width="796" height="1099" fill="#E5E5E5"/>
<path d="M40.456 42.856H4.456V7.71998H123.688V42.856H88.264V241H40.456V42.856ZM144.849 7.71998H205.329C230.481 7.71998 249.393 12.328 262.065 21.544C274.737 30.76 281.073 46.696 281.073 69.352C281.073 84.52 278.961 96.808 274.737 106.216C270.513 115.432 263.025 122.44 252.273 127.24L284.529 241H235.857L209.361 135.304H192.081V241H144.849V7.71998ZM206.193 107.08C217.329 107.08 225.105 104.392 229.521 99.016C234.129 93.448 236.433 84.808 236.433 73.096C236.433 61.576 234.417 53.128 230.385 47.752C226.353 42.376 219.057 39.688 208.497 39.688H192.081V107.08H206.193ZM377.295 244.168C360.015 244.168 346.479 241.288 336.687 235.528C326.895 229.576 319.983 221.032 315.951 209.896C311.919 198.76 309.903 184.552 309.903 167.272V7.71998H356.559V173.896C356.559 185.032 357.903 193.768 360.591 200.104C363.279 206.44 368.847 209.608 377.295 209.608C385.743 209.608 391.311 206.44 393.999 200.104C396.687 193.768 398.031 185.032 398.031 173.896V7.71998H444.975V167.272C444.975 184.552 442.959 198.76 438.927 209.896C434.895 221.032 427.887 229.576 417.903 235.528C408.111 241.288 394.575 244.168 377.295 244.168ZM538.323 244.168C516.819 244.168 500.691 238.312 489.939 226.6C479.187 214.696 473.331 196.36 472.371 171.592L513.267 164.68C513.651 179.464 515.667 190.408 519.315 197.512C523.155 204.424 528.819 207.88 536.307 207.88C541.875 207.88 545.907 206.152 548.403 202.696C550.899 199.048 552.147 194.44 552.147 188.872C552.147 179.656 550.035 171.88 545.811 165.544C541.779 159.016 535.347 151.912 526.515 144.232L502.323 123.208C492.723 115.144 485.331 106.504 480.147 97.288C475.155 88.072 472.659 77.032 472.659 64.168C472.659 45.16 478.227 30.568 489.363 20.392C500.691 10.024 516.243 4.83998 536.019 4.83998C557.139 4.83998 571.827 10.984 580.083 23.272C588.339 35.368 593.043 50.824 594.195 69.64L553.011 75.688C552.627 63.4 551.187 54.376 548.691 48.616C546.387 42.664 541.682 39.688 534.578 39.688C529.395 39.688 525.363 41.704 522.483 45.736C519.603 49.576 518.163 54.184 518.163 59.56C518.163 67.24 519.795 73.768 523.059 79.144C526.515 84.328 531.891 90.088 539.187 96.424L562.803 117.16C573.939 126.952 582.675 137.32 589.011 148.264C595.347 159.016 598.515 171.688 598.515 186.28C598.515 197.416 596.019 207.4 591.027 216.232C586.035 224.872 578.931 231.688 569.715 236.68C560.691 241.672 550.227 244.168 538.323 244.168ZM645.425 42.856H609.425V7.71998H728.657V42.856H693.233V241H645.425V42.856ZM747.802 266.056C760.858 262.408 767.386 254.056 767.386 241H744.634V198.952H786.394V236.104C786.01 262.984 774.298 277.864 751.258 280.744L747.802 266.056ZM18.568 434.72H77.896C100.552 434.72 118.12 439.136 130.6 447.968C143.08 456.608 149.32 472.352 149.32 495.2C149.32 509.024 146.344 519.968 140.392 528.032C134.632 535.904 126.28 540.8 115.336 542.72C128.968 544.64 139.144 550.4 145.864 560C152.776 569.6 156.232 582.752 156.232 599.456C156.232 645.152 133.576 668 88.264 668H18.568V434.72ZM77.896 528.896C89.416 528.896 97.288 526.304 101.512 521.12C105.736 515.936 107.848 507.68 107.848 496.352C107.848 485.984 105.16 478.592 99.784 474.176C94.408 469.568 86.056 467.264 74.728 467.264H65.8V528.896H77.896ZM79.336 634.592C90.856 634.592 98.92 631.712 103.528 625.952C108.328 620.192 110.728 611.072 110.728 598.592C110.728 585.152 108.232 575.552 103.24 569.792C98.44 563.84 90.184 560.864 78.472 560.864H65.8V634.592H79.336ZM249.888 671.168C232.608 671.168 219.072 668.288 209.28 662.528C199.488 656.576 192.576 648.032 188.544 636.896C184.512 625.76 182.496 611.552 182.496 594.272V434.72H229.152V600.896C229.152 612.032 230.496 620.768 233.184 627.104C235.872 633.44 241.44 636.608 249.888 636.608C258.336 636.608 263.904 633.44 266.592 627.104C269.28 620.768 270.624 612.032 270.624 600.896V434.72H317.568V594.272C317.568 611.552 315.552 625.76 311.52 636.896C307.488 648.032 300.48 656.576 290.496 662.528C280.704 668.288 267.168 671.168 249.888 671.168ZM372.612 469.856H336.612V434.72H455.844V469.856H420.42V668H372.612V469.856ZM7.336 861.72H48.52L76.168 1023L102.088 861.72H145L100.648 1095H51.688L7.336 861.72ZM168.756 861.72H270.42V894.552H215.988V956.472H258.036V989.592H215.988V1062.74H270.996V1095H168.756V861.72ZM295.318 861.72H355.798C380.95 861.72 399.862 866.328 412.534 875.544C425.206 884.76 431.542 900.696 431.542 923.352C431.542 938.52 429.43 950.808 425.206 960.216C420.982 969.432 413.494 976.44 402.742 981.24L434.998 1095H386.326L359.83 989.304H342.55V1095H295.318V861.72ZM356.662 961.08C367.798 961.08 375.574 958.392 379.99 953.016C384.598 947.448 386.902 938.808 386.902 927.096C386.902 915.576 384.886 907.128 380.854 901.752C376.822 896.376 369.526 893.688 358.966 893.688H342.55V961.08H356.662ZM463.8 861.72H511.032V1095H463.8V861.72ZM546.474 861.72H644.97V894.264H593.706V957.048H637.194V990.168H593.706V1095H546.474V861.72ZM699.346 1002.55L653.842 861.72H698.482L723.538 943.8L746.578 861.72H790.066L745.138 1002.55V1095H699.346V1002.55Z" fill="#BDBDBD"/>
<path d="M40.456 42.856H44.456V38.856H40.456V42.856ZM4.456 42.856H0.456V46.856H4.456V42.856ZM4.456 7.71998V3.71998H0.456V7.71998H4.456ZM123.688 7.71998H127.688V3.71998H123.688V7.71998ZM123.688 42.856V46.856H127.688V42.856H123.688ZM88.264 42.856V38.856H84.264V42.856H88.264ZM88.264 241V245H92.264V241H88.264ZM40.456 241H36.456V245H40.456V241ZM40.456 38.856H4.456V46.856H40.456V38.856ZM8.456 42.856V7.71998H0.456V42.856H8.456ZM4.456 11.72H123.688V3.71998H4.456V11.72ZM119.688 7.71998V42.856H127.688V7.71998H119.688ZM123.688 38.856H88.264V46.856H123.688V38.856ZM84.264 42.856V241H92.264V42.856H84.264ZM88.264 237H40.456V245H88.264V237ZM44.456 241V42.856H36.456V241H44.456ZM144.849 7.71998V3.71998H140.849V7.71998H144.849ZM262.065 21.544L259.713 24.7789L259.713 24.7789L262.065 21.544ZM274.737 106.216L278.374 107.883L278.38 107.869L278.386 107.854L274.737 106.216ZM252.273 127.24L250.643 123.587L247.48 124.999L248.425 128.331L252.273 127.24ZM284.529 241V245H289.821L288.378 239.909L284.529 241ZM235.857 241L231.977 241.973L232.736 245H235.857V241ZM209.361 135.304L213.241 134.331L212.482 131.304H209.361V135.304ZM192.081 135.304V131.304H188.081V135.304H192.081ZM192.081 241V245H196.081V241H192.081ZM144.849 241H140.849V245H144.849V241ZM229.521 99.016L226.44 96.4657L226.435 96.4714L226.43 96.477L229.521 99.016ZM230.385 47.752L227.185 50.152L227.185 50.152L230.385 47.752ZM192.081 39.688V35.688H188.081V39.688H192.081ZM192.081 107.08H188.081V111.08H192.081V107.08ZM144.849 11.72H205.329V3.71998H144.849V11.72ZM205.329 11.72C230.107 11.72 248.026 16.2798 259.713 24.7789L264.418 18.309C250.76 8.37616 230.855 3.71998 205.329 3.71998V11.72ZM259.713 24.7789C270.943 32.9464 277.073 47.3722 277.073 69.352H285.073C285.073 46.0198 278.532 28.5736 264.418 18.309L259.713 24.7789ZM277.073 69.352C277.073 84.1988 274.998 95.8684 271.088 104.578L278.386 107.854C282.924 97.7475 285.073 84.8412 285.073 69.352H277.073ZM271.101 104.549C267.346 112.741 260.659 119.116 250.643 123.587L253.904 130.893C265.391 125.764 273.68 118.123 278.374 107.883L271.101 104.549ZM248.425 128.331L280.681 242.091L288.378 239.909L256.122 126.149L248.425 128.331ZM284.529 237H235.857V245H284.529V237ZM239.737 240.027L213.241 134.331L205.481 136.277L231.977 241.973L239.737 240.027ZM209.361 131.304H192.081V139.304H209.361V131.304ZM188.081 135.304V241H196.081V135.304H188.081ZM192.081 237H144.849V245H192.081V237ZM148.849 241V7.71998H140.849V241H148.849ZM206.193 111.08C217.812 111.08 227.077 108.294 232.612 101.555L226.43 96.477C223.134 100.49 216.846 103.08 206.193 103.08V111.08ZM232.603 101.566C238.075 94.9538 240.433 85.2005 240.433 73.096H232.433C232.433 84.4155 230.183 91.9422 226.44 96.4657L232.603 101.566ZM240.433 73.096C240.433 61.2663 238.393 51.7618 233.585 45.352L227.185 50.152C230.442 54.4942 232.433 61.8857 232.433 73.096H240.433ZM233.585 45.352C228.447 38.5003 219.585 35.688 208.497 35.688V43.688C218.53 43.688 224.26 46.2516 227.185 50.152L233.585 45.352ZM208.497 35.688H192.081V43.688H208.497V35.688ZM188.081 39.688V107.08H196.081V39.688H188.081ZM192.081 111.08H206.193V103.08H192.081V111.08ZM336.687 235.528L334.609 238.946L334.634 238.961L334.658 238.976L336.687 235.528ZM315.951 209.896L319.712 208.534L319.712 208.534L315.951 209.896ZM309.903 7.71998V3.71998H305.903V7.71998H309.903ZM356.559 7.71998H360.559V3.71998H356.559V7.71998ZM360.591 200.104L356.908 201.666L356.908 201.666L360.591 200.104ZM393.999 200.104L390.316 198.542L390.316 198.542L393.999 200.104ZM398.031 7.71998V3.71998H394.031V7.71998H398.031ZM444.975 7.71998H448.975V3.71998H444.975V7.71998ZM438.927 209.896L435.165 208.534L435.165 208.534L438.927 209.896ZM417.903 235.528L419.931 238.976L419.941 238.97L419.951 238.964L417.903 235.528ZM377.295 240.168C360.385 240.168 347.652 237.337 338.715 232.08L334.658 238.976C345.305 245.239 359.644 248.168 377.295 248.168V240.168ZM338.764 232.11C329.779 226.648 323.444 218.844 319.712 208.534L312.189 211.258C316.521 223.22 324.01 232.504 334.609 238.946L338.764 232.11ZM319.712 208.534C315.892 197.986 313.903 184.281 313.903 167.272H305.903C305.903 184.823 307.945 199.534 312.189 211.258L319.712 208.534ZM313.903 167.272V7.71998H305.903V167.272H313.903ZM309.903 11.72H356.559V3.71998H309.903V11.72ZM352.559 7.71998V173.896H360.559V7.71998H352.559ZM352.559 173.896C352.559 185.277 353.921 194.624 356.908 201.666L364.273 198.542C361.884 192.912 360.559 184.787 360.559 173.896H352.559ZM356.908 201.666C358.568 205.578 361.199 208.658 364.804 210.709C368.354 212.728 372.591 213.608 377.295 213.608V205.608C373.55 205.608 370.779 204.904 368.761 203.755C366.798 202.638 365.301 200.966 364.273 198.542L356.908 201.666ZM377.295 213.608C381.998 213.608 386.235 212.728 389.785 210.709C393.39 208.658 396.021 205.578 397.681 201.666L390.316 198.542C389.288 200.966 387.791 202.638 385.828 203.755C383.81 204.904 381.039 205.608 377.295 205.608V213.608ZM397.681 201.666C400.668 194.624 402.031 185.277 402.031 173.896H394.031C394.031 184.787 392.705 192.912 390.316 198.542L397.681 201.666ZM402.031 173.896V7.71998H394.031V173.896H402.031ZM398.031 11.72H444.975V3.71998H398.031V11.72ZM440.975 7.71998V167.272H448.975V7.71998H440.975ZM440.975 167.272C440.975 184.281 438.985 197.986 435.165 208.534L442.688 211.258C446.932 199.534 448.975 184.823 448.975 167.272H440.975ZM435.165 208.534C431.441 218.82 425.029 226.623 415.854 232.092L419.951 238.964C430.744 232.529 438.348 223.244 442.688 211.258L435.165 208.534ZM415.874 232.08C406.937 237.337 394.204 240.168 377.295 240.168V248.168C394.945 248.168 409.284 245.239 419.931 238.976L415.874 232.08ZM489.939 226.6L486.97 229.281L486.981 229.293L486.992 229.305L489.939 226.6ZM472.371 171.592L471.704 167.648L468.237 168.234L468.374 171.747L472.371 171.592ZM513.267 164.68L517.265 164.576L517.145 159.968L512.6 160.736L513.267 164.68ZM519.315 197.512L515.756 199.339L515.786 199.397L515.818 199.455L519.315 197.512ZM548.403 202.696L551.645 205.038L551.675 204.997L551.704 204.955L548.403 202.696ZM545.811 165.544L542.407 167.646L542.444 167.705L542.482 167.763L545.811 165.544ZM526.515 144.232L529.139 141.214L529.138 141.213L526.515 144.232ZM502.323 123.208L504.946 120.189L504.921 120.167L504.895 120.145L502.323 123.208ZM480.147 97.288L476.629 99.1931L476.645 99.2212L476.66 99.249L480.147 97.288ZM489.363 20.392L492.061 23.3448L492.063 23.3427L489.363 20.392ZM580.083 23.272L576.762 25.5027L576.77 25.5149L576.779 25.527L580.083 23.272ZM594.195 69.64L594.776 73.5975L598.412 73.0636L598.187 69.3956L594.195 69.64ZM553.011 75.688L549.012 75.8129L549.153 80.2974L553.592 79.6456L553.011 75.688ZM548.691 48.616L544.96 50.06L544.989 50.1338L545.02 50.2064L548.691 48.616ZM522.483 45.736L525.682 48.136L525.71 48.0988L525.737 48.0609L522.483 45.736ZM523.059 79.144L519.639 81.2199L519.683 81.2923L519.73 81.3628L523.059 79.144ZM539.187 96.424L541.826 93.4182L541.817 93.411L541.809 93.4039L539.187 96.424ZM562.803 117.16L565.444 114.156L565.442 114.154L562.803 117.16ZM589.011 148.264L585.549 150.268L585.557 150.281L585.564 150.295L589.011 148.264ZM591.027 216.232L594.49 218.233L594.499 218.217L594.509 218.2L591.027 216.232ZM569.715 236.68L567.809 233.163L567.794 233.171L567.778 233.18L569.715 236.68ZM538.323 240.168C517.527 240.168 502.64 234.521 492.885 223.895L486.992 229.305C498.741 242.103 516.11 248.168 538.323 248.168V240.168ZM492.907 223.919C483.046 213.002 477.31 195.755 476.367 171.437L468.374 171.747C469.351 196.965 475.327 216.39 486.97 229.281L492.907 223.919ZM473.037 175.536L513.933 168.624L512.6 160.736L471.704 167.648L473.037 175.536ZM509.268 164.784C509.656 179.741 511.689 191.42 515.756 199.339L522.873 195.685C519.644 189.396 517.645 179.187 517.265 164.576L509.268 164.784ZM515.818 199.455C518.009 203.399 520.833 206.551 524.359 208.703C527.896 210.861 531.924 211.88 536.307 211.88V203.88C533.201 203.88 530.653 203.171 528.526 201.873C526.388 200.569 524.46 198.537 522.811 195.569L515.818 199.455ZM536.307 211.88C542.726 211.88 548.175 209.842 551.645 205.038L545.16 200.354C543.638 202.462 541.023 203.88 536.307 203.88V211.88ZM551.704 204.955C554.761 200.487 556.147 195.036 556.147 188.872H548.147C548.147 193.844 547.036 197.609 545.101 200.437L551.704 204.955ZM556.147 188.872C556.147 179.034 553.886 170.445 549.139 163.325L542.482 167.763C546.183 173.315 548.147 180.278 548.147 188.872H556.147ZM549.214 163.442C544.89 156.441 538.133 149.035 529.139 141.214L523.89 147.25C532.56 154.789 538.667 161.591 542.407 167.646L549.214 163.442ZM529.138 141.213L504.946 120.189L499.699 126.227L523.891 147.251L529.138 141.213ZM504.895 120.145C495.597 112.334 488.542 104.054 483.633 95.327L476.66 99.249C482.119 108.954 489.848 117.954 499.75 126.271L504.895 120.145ZM483.664 95.3829C479.053 86.8706 476.659 76.5162 476.659 64.168H468.659C468.659 77.5478 471.256 89.2734 476.629 99.1931L483.664 95.3829ZM476.659 64.168C476.659 45.9711 481.96 32.5753 492.061 23.3448L486.664 17.4392C474.493 28.5607 468.659 44.3488 468.659 64.168H476.659ZM492.063 23.3427C502.461 13.8264 516.945 8.83998 536.019 8.83998V0.839985C515.54 0.839985 498.92 6.2216 486.662 17.4413L492.063 23.3427ZM536.019 8.83998C556.419 8.83998 569.536 14.7475 576.762 25.5027L583.403 21.0412C574.117 7.22047 557.858 0.839985 536.019 0.839985V8.83998ZM576.779 25.527C584.527 36.8791 589.082 51.5855 590.202 69.8844L598.187 69.3956C597.003 50.0625 592.15 33.8569 583.386 21.017L576.779 25.527ZM593.613 65.6824L552.429 71.7304L553.592 79.6456L594.776 73.5975L593.613 65.6824ZM557.009 75.5631C556.621 63.1599 555.169 53.507 552.361 47.0256L545.02 50.2064C547.204 55.245 548.632 63.6401 549.012 75.8129L557.009 75.5631ZM552.421 47.172C551.007 43.5187 548.753 40.5512 545.573 38.5397C542.426 36.5489 538.681 35.688 534.578 35.688V43.688C537.58 43.688 539.739 44.3151 541.296 45.3003C542.82 46.2647 544.07 47.7613 544.96 50.06L552.421 47.172ZM534.578 35.688C528.173 35.688 522.898 38.2717 519.228 43.411L525.737 48.0609C527.827 45.1362 530.616 43.688 534.578 43.688V35.688ZM519.283 43.336C515.821 47.9508 514.163 53.4276 514.163 59.56H522.163C522.163 54.9404 523.384 51.2012 525.682 48.136L519.283 43.336ZM514.163 59.56C514.163 67.8102 515.919 75.0929 519.639 81.2199L526.478 77.0681C523.67 72.4431 522.163 66.6698 522.163 59.56H514.163ZM519.73 81.3628C523.462 86.9603 529.129 92.9874 536.564 99.4441L541.809 93.4039C534.652 87.1886 529.567 81.6956 526.387 76.9252L519.73 81.3628ZM536.547 99.4298L560.163 120.166L565.442 114.154L541.826 93.4182L536.547 99.4298ZM560.161 120.164C571.026 129.718 579.464 139.758 585.549 150.268L592.472 146.26C585.885 134.882 576.851 124.186 565.444 114.156L560.161 120.164ZM585.564 150.295C591.48 160.334 594.515 172.28 594.515 186.28H602.515C602.515 171.096 599.213 157.698 592.457 146.233L585.564 150.295ZM594.515 186.28C594.515 196.795 592.164 206.09 587.544 214.264L594.509 218.2C599.873 208.71 602.515 198.037 602.515 186.28H594.515ZM587.563 214.231C582.96 222.198 576.41 228.504 567.809 233.163L571.62 240.197C581.451 234.872 589.109 227.546 594.49 218.233L587.563 214.231ZM567.778 233.18C559.433 237.796 549.655 240.168 538.323 240.168V248.168C550.798 248.168 561.948 245.548 571.651 240.18L567.778 233.18ZM645.425 42.856H649.425V38.856H645.425V42.856ZM609.425 42.856H605.425V46.856H609.425V42.856ZM609.425 7.71998V3.71998H605.425V7.71998H609.425ZM728.657 7.71998H732.657V3.71998H728.657V7.71998ZM728.657 42.856V46.856H732.657V42.856H728.657ZM693.233 42.856V38.856H689.233V42.856H693.233ZM693.233 241V245H697.233V241H693.233ZM645.425 241H641.425V245H645.425V241ZM645.425 38.856H609.425V46.856H645.425V38.856ZM613.425 42.856V7.71998H605.425V42.856H613.425ZM609.425 11.72H728.657V3.71998H609.425V11.72ZM724.657 7.71998V42.856H732.657V7.71998H724.657ZM728.657 38.856H693.233V46.856H728.657V38.856ZM689.233 42.856V241H697.233V42.856H689.233ZM693.233 237H645.425V245H693.233V237ZM649.425 241V42.856H641.425V241H649.425ZM747.802 266.056L746.726 262.204L743.029 263.236L743.908 266.972L747.802 266.056ZM767.386 241H771.386V237H767.386V241ZM744.634 241H740.634V245H744.634V241ZM744.634 198.952V194.952H740.634V198.952H744.634ZM786.394 198.952H790.394V194.952H786.394V198.952ZM786.394 236.104L790.394 236.161L790.394 236.133V236.104H786.394ZM751.258 280.744L747.364 281.66L748.188 285.159L751.754 284.713L751.258 280.744ZM748.878 269.908C755.998 267.919 761.721 264.535 765.642 259.519C769.573 254.489 771.386 248.209 771.386 241H763.386C763.386 246.847 761.935 251.271 759.338 254.593C756.731 257.929 752.662 260.545 746.726 262.204L748.878 269.908ZM767.386 237H744.634V245H767.386V237ZM748.634 241V198.952H740.634V241H748.634ZM744.634 202.952H786.394V194.952H744.634V202.952ZM782.394 198.952V236.104H790.394V198.952H782.394ZM782.394 236.047C782.21 248.967 779.306 258.437 774.179 264.95C769.115 271.383 761.488 275.434 750.762 276.775L751.754 284.713C764.068 283.174 773.817 278.345 780.465 269.898C787.05 261.531 790.194 250.121 790.394 236.161L782.394 236.047ZM755.152 279.828L751.696 265.14L743.908 266.972L747.364 281.66L755.152 279.828ZM18.568 434.72V430.72H14.568V434.72H18.568ZM130.6 447.968L128.289 451.233L128.306 451.245L128.323 451.257L130.6 447.968ZM140.392 528.032L137.174 525.657L137.169 525.663L137.164 525.67L140.392 528.032ZM115.336 542.72L114.645 538.78L114.778 546.681L115.336 542.72ZM145.864 560L142.587 562.294L142.602 562.316L142.618 562.337L145.864 560ZM18.568 668H14.568V672H18.568V668ZM101.512 521.12L98.4111 518.593L98.4111 518.593L101.512 521.12ZM99.784 474.176L97.1808 477.213L97.2127 477.24L97.245 477.267L99.784 474.176ZM65.8 467.264V463.264H61.8V467.264H65.8ZM65.8 528.896H61.8V532.896H65.8V528.896ZM103.528 625.952L100.455 623.391L100.43 623.422L100.405 623.453L103.528 625.952ZM103.24 569.792L100.126 572.303L100.171 572.358L100.217 572.412L103.24 569.792ZM65.8 560.864V556.864H61.8V560.864H65.8ZM65.8 634.592H61.8V638.592H65.8V634.592ZM18.568 438.72H77.896V430.72H18.568V438.72ZM77.896 438.72C100.103 438.72 116.739 443.059 128.289 451.233L132.911 444.703C119.501 435.213 101.001 430.72 77.896 430.72V438.72ZM128.323 451.257C139.256 458.826 145.32 472.968 145.32 495.2H153.32C153.32 471.736 146.904 454.39 132.877 444.679L128.323 451.257ZM145.32 495.2C145.32 508.487 142.457 518.498 137.174 525.657L143.61 530.407C150.231 521.438 153.32 509.561 153.32 495.2H145.32ZM137.164 525.67C132.1 532.591 124.724 537.012 114.645 538.78L116.027 546.66C127.836 544.588 137.164 539.217 143.62 530.394L137.164 525.67ZM114.778 546.681C127.521 548.476 136.615 553.762 142.587 562.294L149.141 557.706C141.673 547.038 130.415 540.804 115.894 538.759L114.778 546.681ZM142.618 562.337C148.875 571.028 152.232 583.256 152.232 599.456H160.232C160.232 582.248 156.677 568.172 149.11 557.663L142.618 562.337ZM152.232 599.456C152.232 621.696 146.72 637.639 136.4 648.048C126.085 658.449 110.295 664 88.264 664V672C111.545 672 129.739 666.127 142.08 653.68C154.416 641.241 160.232 622.912 160.232 599.456H152.232ZM88.264 664H18.568V672H88.264V664ZM22.568 668V434.72H14.568V668H22.568ZM77.896 532.896C89.7821 532.896 99.2243 530.26 104.613 523.647L98.4111 518.593C95.3517 522.348 89.05 524.896 77.896 524.896V532.896ZM104.613 523.647C109.703 517.4 111.848 508.017 111.848 496.352H103.848C103.848 507.343 101.769 514.472 98.4111 518.593L104.613 523.647ZM111.848 496.352C111.848 485.387 109.005 476.574 102.323 471.085L97.245 477.267C101.315 480.61 103.848 486.581 103.848 496.352H111.848ZM102.387 471.139C95.9613 465.631 86.4716 463.264 74.728 463.264V471.264C85.6405 471.264 92.8547 473.505 97.1808 477.213L102.387 471.139ZM74.728 463.264H65.8V471.264H74.728V463.264ZM61.8 467.264V528.896H69.8V467.264H61.8ZM65.8 532.896H77.896V524.896H65.8V532.896ZM79.336 638.592C91.3831 638.592 100.939 635.591 106.651 628.451L100.405 623.453C96.9007 627.833 90.3289 630.592 79.336 630.592V638.592ZM106.601 628.513C112.286 621.691 114.728 611.434 114.728 598.592H106.728C106.728 610.71 104.37 618.693 100.455 623.391L106.601 628.513ZM114.728 598.592C114.728 584.853 112.215 574.04 106.263 567.172L100.217 572.412C104.249 577.064 106.728 585.451 106.728 598.592H114.728ZM106.354 567.281C100.462 559.976 90.741 556.864 78.472 556.864V564.864C89.627 564.864 96.4177 567.704 100.126 572.303L106.354 567.281ZM78.472 556.864H65.8V564.864H78.472V556.864ZM61.8 560.864V634.592H69.8V560.864H61.8ZM65.8 638.592H79.336V630.592H65.8V638.592ZM209.28 662.528L207.203 665.946L207.227 665.961L207.252 665.976L209.28 662.528ZM188.544 636.896L192.305 635.534L192.305 635.534L188.544 636.896ZM182.496 434.72V430.72H178.496V434.72H182.496ZM229.152 434.72H233.152V430.72H229.152V434.72ZM233.184 627.104L229.502 628.666L229.502 628.666L233.184 627.104ZM266.592 627.104L262.91 625.542L262.91 625.542L266.592 627.104ZM270.624 434.72V430.72H266.624V434.72H270.624ZM317.568 434.72H321.568V430.72H317.568V434.72ZM311.52 636.896L307.759 635.534L307.759 635.534L311.52 636.896ZM290.496 662.528L292.524 665.976L292.534 665.97L292.545 665.964L290.496 662.528ZM249.888 667.168C232.979 667.168 220.246 664.337 211.308 659.08L207.252 665.976C217.899 672.239 232.238 675.168 249.888 675.168V667.168ZM211.358 659.11C202.373 653.648 196.038 645.844 192.305 635.534L184.783 638.258C189.114 650.22 196.604 659.504 207.203 665.946L211.358 659.11ZM192.305 635.534C188.486 624.986 186.496 611.281 186.496 594.272H178.496C178.496 611.823 180.538 626.534 184.783 638.258L192.305 635.534ZM186.496 594.272V434.72H178.496V594.272H186.496ZM182.496 438.72H229.152V430.72H182.496V438.72ZM225.152 434.72V600.896H233.152V434.72H225.152ZM225.152 600.896C225.152 612.277 226.514 621.624 229.502 628.666L236.867 625.542C234.478 619.912 233.152 611.787 233.152 600.896H225.152ZM229.502 628.666C231.161 632.578 233.793 635.658 237.398 637.709C240.947 639.728 245.185 640.608 249.888 640.608V632.608C246.144 632.608 243.373 631.904 241.354 630.755C239.391 629.638 237.895 627.966 236.867 625.542L229.502 628.666ZM249.888 640.608C254.592 640.608 258.829 639.728 262.378 637.709C265.983 635.658 268.615 632.578 270.275 628.666L262.91 625.542C261.881 627.966 260.385 629.638 258.422 630.755C256.403 631.904 253.633 632.608 249.888 632.608V640.608ZM270.275 628.666C273.262 621.624 274.624 612.277 274.624 600.896H266.624C266.624 611.787 265.298 619.912 262.91 625.542L270.275 628.666ZM274.624 600.896V434.72H266.624V600.896H274.624ZM270.624 438.72H317.568V430.72H270.624V438.72ZM313.568 434.72V594.272H321.568V434.72H313.568ZM313.568 594.272C313.568 611.281 311.578 624.986 307.759 635.534L315.281 638.258C319.526 626.534 321.568 611.823 321.568 594.272H313.568ZM307.759 635.534C304.035 645.82 297.623 653.623 288.448 659.092L292.545 665.964C303.338 659.529 310.941 650.244 315.281 638.258L307.759 635.534ZM288.468 659.08C279.531 664.337 266.798 667.168 249.888 667.168V675.168C267.539 675.168 281.878 672.239 292.524 665.976L288.468 659.08ZM372.612 469.856H376.612V465.856H372.612V469.856ZM336.612 469.856H332.612V473.856H336.612V469.856ZM336.612 434.72V430.72H332.612V434.72H336.612ZM455.844 434.72H459.844V430.72H455.844V434.72ZM455.844 469.856V473.856H459.844V469.856H455.844ZM420.42 469.856V465.856H416.42V469.856H420.42ZM420.42 668V672H424.42V668H420.42ZM372.612 668H368.612V672H372.612V668ZM372.612 465.856H336.612V473.856H372.612V465.856ZM340.612 469.856V434.72H332.612V469.856H340.612ZM336.612 438.72H455.844V430.72H336.612V438.72ZM451.844 434.72V469.856H459.844V434.72H451.844ZM455.844 465.856H420.42V473.856H455.844V465.856ZM416.42 469.856V668H424.42V469.856H416.42ZM420.42 664H372.612V672H420.42V664ZM376.612 668V469.856H368.612V668H376.612ZM7.336 861.72V857.72H2.50385L3.40639 862.467L7.336 861.72ZM48.52 861.72L52.4625 861.044L51.8926 857.72H48.52V861.72ZM76.168 1023L72.2255 1023.68L80.1173 1023.63L76.168 1023ZM102.088 861.72V857.72H98.6795L98.1387 861.085L102.088 861.72ZM145 861.72L148.93 862.467L149.832 857.72H145V861.72ZM100.648 1095V1099H103.959L104.578 1095.75L100.648 1095ZM51.688 1095L47.7584 1095.75L48.3768 1099H51.688V1095ZM7.336 865.72H48.52V857.72H7.336V865.72ZM44.5775 862.396L72.2255 1023.68L80.1105 1022.32L52.4625 861.044L44.5775 862.396ZM80.1173 1023.63L106.037 862.355L98.1387 861.085L72.2187 1022.37L80.1173 1023.63ZM102.088 865.72H145V857.72H102.088V865.72ZM141.07 860.973L96.7184 1094.25L104.578 1095.75L148.93 862.467L141.07 860.973ZM100.648 1091H51.688V1099H100.648V1091ZM55.6176 1094.25L11.2656 860.973L3.40639 862.467L47.7584 1095.75L55.6176 1094.25ZM168.756 861.72V857.72H164.756V861.72H168.756ZM270.42 861.72H274.42V857.72H270.42V861.72ZM270.42 894.552V898.552H274.42V894.552H270.42ZM215.988 894.552V890.552H211.988V894.552H215.988ZM215.988 956.472H211.988V960.472H215.988V956.472ZM258.036 956.472H262.036V952.472H258.036V956.472ZM258.036 989.592V993.592H262.036V989.592H258.036ZM215.988 989.592V985.592H211.988V989.592H215.988ZM215.988 1062.74H211.988V1066.74H215.988V1062.74ZM270.996 1062.74H274.996V1058.74H270.996V1062.74ZM270.996 1095V1099H274.996V1095H270.996ZM168.756 1095H164.756V1099H168.756V1095ZM168.756 865.72H270.42V857.72H168.756V865.72ZM266.42 861.72V894.552H274.42V861.72H266.42ZM270.42 890.552H215.988V898.552H270.42V890.552ZM211.988 894.552V956.472H219.988V894.552H211.988ZM215.988 960.472H258.036V952.472H215.988V960.472ZM254.036 956.472V989.592H262.036V956.472H254.036ZM258.036 985.592H215.988V993.592H258.036V985.592ZM211.988 989.592V1062.74H219.988V989.592H211.988ZM215.988 1066.74H270.996V1058.74H215.988V1066.74ZM266.996 1062.74V1095H274.996V1062.74H266.996ZM270.996 1091H168.756V1099H270.996V1091ZM172.756 1095V861.72H164.756V1095H172.756ZM295.318 861.72V857.72H291.318V861.72H295.318ZM412.534 875.544L410.181 878.779L410.181 878.779L412.534 875.544ZM425.206 960.216L428.842 961.883L428.849 961.869L428.855 961.854L425.206 960.216ZM402.742 981.24L401.111 977.587L397.949 978.999L398.894 982.331L402.742 981.24ZM434.998 1095V1099H440.29L438.846 1093.91L434.998 1095ZM386.326 1095L382.446 1095.97L383.205 1099H386.326V1095ZM359.83 989.304L363.71 988.331L362.951 985.304H359.83V989.304ZM342.55 989.304V985.304H338.55V989.304H342.55ZM342.55 1095V1099H346.55V1095H342.55ZM295.318 1095H291.318V1099H295.318V1095ZM379.99 953.016L376.908 950.466L376.904 950.471L376.899 950.477L379.99 953.016ZM380.854 901.752L377.654 904.152L377.654 904.152L380.854 901.752ZM342.55 893.688V889.688H338.55V893.688H342.55ZM342.55 961.08H338.55V965.08H342.55V961.08ZM295.318 865.72H355.798V857.72H295.318V865.72ZM355.798 865.72C380.576 865.72 398.495 870.28 410.181 878.779L414.887 872.309C401.229 862.376 381.324 857.72 355.798 857.72V865.72ZM410.181 878.779C421.412 886.946 427.542 901.372 427.542 923.352H435.542C435.542 900.02 429 882.574 414.887 872.309L410.181 878.779ZM427.542 923.352C427.542 938.199 425.467 949.868 421.557 958.578L428.855 961.854C433.393 951.748 435.542 938.841 435.542 923.352H427.542ZM421.57 958.549C417.815 966.741 411.128 973.116 401.111 977.587L404.373 984.893C415.86 979.764 424.149 972.123 428.842 961.883L421.57 958.549ZM398.894 982.331L431.15 1096.09L438.846 1093.91L406.59 980.149L398.894 982.331ZM434.998 1091H386.326V1099H434.998V1091ZM390.206 1094.03L363.71 988.331L355.95 990.277L382.446 1095.97L390.206 1094.03ZM359.83 985.304H342.55V993.304H359.83V985.304ZM338.55 989.304V1095H346.55V989.304H338.55ZM342.55 1091H295.318V1099H342.55V1091ZM299.318 1095V861.72H291.318V1095H299.318ZM356.662 965.08C368.281 965.08 377.546 962.294 383.081 955.555L376.899 950.477C373.602 954.49 367.315 957.08 356.662 957.08V965.08ZM383.072 955.566C388.544 948.954 390.902 939.201 390.902 927.096H382.902C382.902 938.415 380.652 945.942 376.908 950.466L383.072 955.566ZM390.902 927.096C390.902 915.266 388.861 905.762 384.054 899.352L377.654 904.152C380.911 908.494 382.902 915.886 382.902 927.096H390.902ZM384.054 899.352C378.915 892.5 370.054 889.688 358.966 889.688V897.688C368.998 897.688 374.729 900.252 377.654 904.152L384.054 899.352ZM358.966 889.688H342.55V897.688H358.966V889.688ZM338.55 893.688V961.08H346.55V893.688H338.55ZM342.55 965.08H356.662V957.08H342.55V965.08ZM463.8 861.72V857.72H459.8V861.72H463.8ZM511.032 861.72H515.032V857.72H511.032V861.72ZM511.032 1095V1099H515.032V1095H511.032ZM463.8 1095H459.8V1099H463.8V1095ZM463.8 865.72H511.032V857.72H463.8V865.72ZM507.032 861.72V1095H515.032V861.72H507.032ZM511.032 1091H463.8V1099H511.032V1091ZM467.8 1095V861.72H459.8V1095H467.8ZM546.474 861.72V857.72H542.474V861.72H546.474ZM644.97 861.72H648.97V857.72H644.97V861.72ZM644.97 894.264V898.264H648.97V894.264H644.97ZM593.706 894.264V890.264H589.706V894.264H593.706ZM593.706 957.048H589.706V961.048H593.706V957.048ZM637.194 957.048H641.194V953.048H637.194V957.048ZM637.194 990.168V994.168H641.194V990.168H637.194ZM593.706 990.168V986.168H589.706V990.168H593.706ZM593.706 1095V1099H597.706V1095H593.706ZM546.474 1095H542.474V1099H546.474V1095ZM546.474 865.72H644.97V857.72H546.474V865.72ZM640.97 861.72V894.264H648.97V861.72H640.97ZM644.97 890.264H593.706V898.264H644.97V890.264ZM589.706 894.264V957.048H597.706V894.264H589.706ZM593.706 961.048H637.194V953.048H593.706V961.048ZM633.194 957.048V990.168H641.194V957.048H633.194ZM637.194 986.168H593.706V994.168H637.194V986.168ZM589.706 990.168V1095H597.706V990.168H589.706ZM593.706 1091H546.474V1099H593.706V1091ZM550.474 1095V861.72H542.474V1095H550.474ZM699.346 1002.55H703.346V1001.92L703.152 1001.32L699.346 1002.55ZM653.842 861.72V857.72H648.346L650.036 862.95L653.842 861.72ZM698.482 861.72L702.308 860.552L701.443 857.72H698.482V861.72ZM723.538 943.8L719.712 944.968L723.699 958.027L727.389 944.881L723.538 943.8ZM746.578 861.72V857.72H743.546L742.727 860.639L746.578 861.72ZM790.066 861.72L793.877 862.936L795.541 857.72H790.066V861.72ZM745.138 1002.55L741.327 1001.34L741.138 1001.93V1002.55H745.138ZM745.138 1095V1099H749.138V1095H745.138ZM699.346 1095H695.346V1099H699.346V1095ZM703.152 1001.32L657.648 860.49L650.036 862.95L695.54 1003.78L703.152 1001.32ZM653.842 865.72H698.482V857.72H653.842V865.72ZM694.656 862.888L719.712 944.968L727.364 942.632L702.308 860.552L694.656 862.888ZM727.389 944.881L750.429 862.801L742.727 860.639L719.687 942.719L727.389 944.881ZM746.578 865.72H790.066V857.72H746.578V865.72ZM786.255 860.504L741.327 1001.34L748.949 1003.77L793.877 862.936L786.255 860.504ZM741.138 1002.55V1095H749.138V1002.55H741.138ZM745.138 1091H699.346V1099H745.138V1091ZM703.346 1095V1002.55H695.346V1095H703.346Z" fill="#A2A7AF"/>
</svg>
