<svg width="952" height="164" viewBox="0 0 952 164" fill="none" xmlns="http://www.w3.org/2000/svg">
<path d="M0.985883 0.190573V-0.809427H-0.014117V0.190573H0.985883ZM69.9047 3.58658L69.6094 4.54198L69.6197 4.54515L69.63 4.5481L69.9047 3.58658ZM87.8835 16.1718L88.6938 15.5856L87.8835 16.1718ZM88.4828 64.9143L87.6924 64.3018L87.6924 64.3018L88.4828 64.9143ZM70.9035 75.1023L70.7141 74.1205L70.776 76.0942L70.9035 75.1023ZM0.985883 162H-0.014117V163H0.985883V162ZM59.1174 59.7205L58.3395 59.0921L58.332 59.1014L58.3248 59.1108L59.1174 59.7205ZM58.1186 29.1565L57.4255 29.8773L57.4328 29.8844L57.4403 29.8913L58.1186 29.1565ZM36.7438 24.1623V23.1623H35.7438V24.1623H36.7438ZM36.7438 64.9143H35.7438V65.9143H36.7438V64.9143ZM60.316 131.436L59.5456 130.798L59.5433 130.801L60.316 131.436ZM60.316 94.08L59.5433 94.7147L59.5499 94.7228L59.5567 94.7308L60.316 94.08ZM36.7438 88.4866V87.4866H35.7438V88.4866H36.7438ZM36.7438 137.029H35.7438V138.029H36.7438V137.029ZM0.985883 1.19057H43.1362V-0.809427H0.985883V1.19057ZM43.1362 1.19057C53.5915 1.19057 62.4085 2.31624 69.6094 4.54198L70.2 2.63117C62.7515 0.328913 53.7228 -0.809427 43.1362 -0.809427V1.19057ZM69.63 4.5481C76.8733 6.61762 82.6773 10.681 87.0733 16.7579L88.6938 15.5856C84.0338 9.14394 77.8519 4.81719 70.1794 2.62505L69.63 4.5481ZM87.0733 16.7579C91.4326 22.7839 93.6755 31.3376 93.6755 42.5407H95.6755C95.6755 31.1038 93.3905 22.0782 88.6938 15.5856L87.0733 16.7579ZM93.6755 42.5407C93.6755 51.9989 91.6381 59.2106 87.6924 64.3018L89.2732 65.5269C93.5845 59.964 95.6755 52.2599 95.6755 42.5407H93.6755ZM87.6924 64.3018C83.7345 69.4087 78.1039 72.6943 70.7141 74.1205L71.093 76.0842C78.8852 74.5805 84.9742 71.0741 89.2732 65.5269L87.6924 64.3018ZM70.776 76.0942C79.8681 77.2632 86.7314 81.0737 91.4745 87.4833L93.0822 86.2936C87.9702 79.3856 80.5836 75.3387 71.0311 74.1105L70.776 76.0942ZM91.4745 87.4833C96.234 93.9151 98.6697 102.737 98.6697 114.056H100.67C100.67 102.469 98.1777 93.1795 93.0822 86.2936L91.4745 87.4833ZM98.6697 114.056C98.6697 129.878 94.6332 141.562 86.7343 149.3C78.8316 157.041 66.8924 161 50.7273 161V163C67.1904 163 79.7225 158.968 88.1338 150.728C96.549 142.485 100.67 130.197 100.67 114.056H98.6697ZM50.7273 161H0.985883V163H50.7273V161ZM1.98588 162V0.190573H-0.014117V162H1.98588ZM43.7355 65.9143C51.4154 65.9143 56.954 64.173 59.91 60.3302L58.3248 59.1108C55.9538 62.1931 51.2378 63.9143 43.7355 63.9143V65.9143ZM59.8954 60.3488C62.9028 56.6253 64.3125 50.9566 64.3125 43.5395H62.3125C62.3125 50.7719 60.9254 55.8904 58.3395 59.0921L59.8954 60.3488ZM64.3125 43.5395C64.3125 36.9714 62.5299 31.8675 58.7969 28.4217L57.4403 29.8913C60.6325 32.8379 62.3125 37.3227 62.3125 43.5395H64.3125ZM58.8117 28.4356C55.1009 24.8675 49.7527 23.1623 42.9365 23.1623V25.1623C49.4379 25.1623 54.2111 26.7866 57.4255 29.8773L58.8117 28.4356ZM42.9365 23.1623H36.7438V25.1623H42.9365V23.1623ZM35.7438 24.1623V64.9143H37.7438V24.1623H35.7438ZM36.7438 65.9143H43.7355V63.9143H36.7438V65.9143ZM44.3348 138.029C52.0536 138.029 57.7486 136.137 61.0887 132.071L59.5433 130.801C56.7573 134.193 51.7982 136.029 44.3348 136.029V138.029ZM61.0864 132.074C64.4987 127.95 66.1104 121.679 66.1104 113.457H64.1104C64.1104 121.483 62.5257 127.197 59.5456 130.798L61.0864 132.074ZM66.1104 113.457C66.1104 104.212 64.5144 97.4416 61.0753 93.4292L59.5567 94.7308C62.51 98.1763 64.1104 104.324 64.1104 113.457H66.1104ZM61.0887 93.4453C57.7458 89.3756 51.9801 87.4866 44.1351 87.4866V89.4866C51.7385 89.4866 56.7601 91.3265 59.5433 94.7147L61.0887 93.4453ZM44.1351 87.4866H36.7438V89.4866H44.1351V87.4866ZM35.7438 88.4866V137.029H37.7438V88.4866H35.7438ZM36.7438 138.029H44.3348V136.029H36.7438V138.029ZM124.818 154.409L124.147 155.15L124.154 155.156L124.818 154.409ZM124.818 54.1271L124.154 53.3796L124.147 53.3858L124.818 54.1271ZM184.348 54.3268L183.676 55.0674L183.684 55.0742L184.348 54.3268ZM184.348 154.409L185.012 155.156L185.02 155.15L184.348 154.409ZM161.175 139.027L162.059 139.495L162.065 139.485L162.07 139.474L161.175 139.027ZM161.175 69.7087L160.281 70.1559L160.286 70.1663L160.292 70.1766L161.175 69.7087ZM148.191 69.7087L147.316 69.2231L147.306 69.2421L147.296 69.2615L148.191 69.7087ZM148.191 139.027L147.296 139.474L147.311 139.505L147.329 139.534L148.191 139.027ZM154.583 162.998C142.098 162.998 132.44 159.846 125.483 153.662L124.154 155.156C131.58 161.757 141.765 164.998 154.583 164.998V162.998ZM125.489 153.668C118.699 147.518 115.231 138.435 115.231 126.242H113.231C113.231 138.82 116.821 148.515 124.147 155.15L125.489 153.668ZM115.231 126.242V82.2939H113.231V126.242H115.231ZM115.231 82.2939C115.231 70.101 118.699 61.0182 125.489 54.8683L124.147 53.3858C116.821 60.0208 113.231 69.716 113.231 82.2939H115.231ZM125.483 54.8745C132.44 48.6903 142.098 45.5384 154.583 45.5384V43.5384C141.765 43.5384 131.58 46.7788 124.154 53.3796L125.483 54.8745ZM154.583 45.5384C167.064 45.5384 176.719 48.7542 183.676 55.0674L185.02 53.5863C177.594 46.8482 167.406 43.5384 154.583 43.5384V45.5384ZM183.684 55.0742C190.606 61.2277 194.135 70.2437 194.135 82.2939H196.135C196.135 69.8395 192.473 60.2109 185.012 53.5794L183.684 55.0742ZM194.135 82.2939V126.242H196.135V82.2939H194.135ZM194.135 126.242C194.135 138.291 190.607 147.38 183.676 153.668L185.02 155.15C192.473 148.387 196.135 138.697 196.135 126.242H194.135ZM183.684 153.662C176.727 159.846 167.069 162.998 154.583 162.998V164.998C167.401 164.998 177.586 161.757 185.012 155.156L183.684 153.662ZM154.783 143.423C158.129 143.423 160.65 142.157 162.059 139.495L160.292 138.559C159.304 140.425 157.563 141.423 154.783 141.423V143.423ZM162.07 139.474C163.371 136.871 163.973 133.157 163.973 128.44H161.973C161.973 133.044 161.376 136.389 160.281 138.58L162.07 139.474ZM163.973 128.44V80.0965H161.973V128.44H163.973ZM163.973 80.0965C163.973 75.3855 163.374 71.7237 162.059 69.2408L160.292 70.1766C161.374 72.2217 161.973 75.4851 161.973 80.0965H163.973ZM162.07 69.2615C161.39 67.9022 160.425 66.8469 159.169 66.1403C157.92 65.4381 156.443 65.1129 154.783 65.1129V67.1129C156.185 67.1129 157.306 67.3871 158.188 67.8835C159.063 68.3754 159.762 69.118 160.281 70.1559L162.07 69.2615ZM154.783 65.1129C151.408 65.1129 148.848 66.4657 147.316 69.2231L149.065 70.1943C150.196 68.1574 152.031 67.1129 154.783 67.1129V65.1129ZM147.296 69.2615C145.996 71.8621 145.393 75.5066 145.393 80.0965H147.393C147.393 75.6304 147.988 72.3497 149.085 70.1559L147.296 69.2615ZM145.393 80.0965V128.44H147.393V80.0965H145.393ZM145.393 128.44C145.393 133.157 145.994 136.871 147.296 139.474L149.085 138.58C147.99 136.389 147.393 133.044 147.393 128.44H145.393ZM147.329 139.534C148.873 142.159 151.435 143.423 154.783 143.423V141.423C152.004 141.423 150.172 140.423 149.053 138.52L147.329 139.534ZM221.384 154.409L220.713 155.15L220.72 155.156L221.384 154.409ZM221.384 54.1271L220.72 53.3796L220.713 53.3858L221.384 54.1271ZM280.914 54.3268L280.242 55.0674L280.25 55.0742L280.914 54.3268ZM280.914 154.409L281.578 155.156L281.586 155.15L280.914 154.409ZM257.741 139.027L258.625 139.495L258.63 139.485L258.636 139.474L257.741 139.027ZM257.741 69.7087L256.847 70.1559L256.852 70.1663L256.857 70.1766L257.741 69.7087ZM244.757 69.7087L243.882 69.2231L243.872 69.2421L243.862 69.2615L244.757 69.7087ZM244.757 139.027L243.862 139.474L243.877 139.505L243.895 139.534L244.757 139.027ZM251.149 162.998C238.664 162.998 229.006 159.846 222.048 153.662L220.72 155.156C228.146 161.757 238.331 164.998 251.149 164.998V162.998ZM222.055 153.668C215.265 147.518 211.797 138.435 211.797 126.242H209.797C209.797 138.82 213.387 148.515 220.713 155.15L222.055 153.668ZM211.797 126.242V82.2939H209.797V126.242H211.797ZM211.797 82.2939C211.797 70.101 215.265 61.0182 222.055 54.8683L220.713 53.3858C213.387 60.0208 209.797 69.716 209.797 82.2939H211.797ZM222.048 54.8745C229.006 48.6903 238.664 45.5384 251.149 45.5384V43.5384C238.331 43.5384 228.146 46.7788 220.72 53.3796L222.048 54.8745ZM251.149 45.5384C263.63 45.5384 273.285 48.7542 280.242 55.0674L281.586 53.5863C274.16 46.8482 263.972 43.5384 251.149 43.5384V45.5384ZM280.25 55.0742C287.172 61.2277 290.701 70.2437 290.701 82.2939H292.701C292.701 69.8395 289.039 60.2109 281.578 53.5794L280.25 55.0742ZM290.701 82.2939V126.242H292.701V82.2939H290.701ZM290.701 126.242C290.701 138.291 287.173 147.38 280.242 153.668L281.586 155.15C289.038 148.387 292.701 138.697 292.701 126.242H290.701ZM280.25 153.662C273.292 159.846 263.635 162.998 251.149 162.998V164.998C263.967 164.998 274.152 161.757 281.578 155.156L280.25 153.662ZM251.349 143.423C254.695 143.423 257.216 142.157 258.625 139.495L256.857 138.559C255.869 140.425 254.129 141.423 251.349 141.423V143.423ZM258.636 139.474C259.937 136.871 260.539 133.157 260.539 128.44H258.539C258.539 133.044 257.942 136.389 256.847 138.58L258.636 139.474ZM260.539 128.44V80.0965H258.539V128.44H260.539ZM260.539 80.0965C260.539 75.3855 259.94 71.7237 258.625 69.2408L256.857 70.1766C257.94 72.2217 258.539 75.4851 258.539 80.0965H260.539ZM258.636 69.2615C257.956 67.9022 256.991 66.8469 255.734 66.1403C254.486 65.4381 253.009 65.1129 251.349 65.1129V67.1129C252.751 67.1129 253.872 67.3871 254.754 67.8835C255.629 68.3754 256.328 69.118 256.847 70.1559L258.636 69.2615ZM251.349 65.1129C247.974 65.1129 245.414 66.4657 243.882 69.2231L245.631 70.1943C246.762 68.1574 248.597 67.1129 251.349 67.1129V65.1129ZM243.862 69.2615C242.562 71.8621 241.959 75.5066 241.959 80.0965H243.959C243.959 75.6304 244.554 72.3497 245.651 70.1559L243.862 69.2615ZM241.959 80.0965V128.44H243.959V80.0965H241.959ZM241.959 128.44C241.959 133.157 242.56 136.871 243.862 139.474L245.651 138.58C244.556 136.389 243.959 133.044 243.959 128.44H241.959ZM243.895 139.534C245.439 142.159 248.001 143.423 251.349 143.423V141.423C248.57 141.423 246.738 140.423 245.618 138.52L243.895 139.534ZM309.76 46.536V45.536H308.76V46.536H309.76ZM341.722 46.536H342.722V45.536H341.722V46.536ZM341.722 55.7252H340.722V58.11L342.423 56.4384L341.722 55.7252ZM381.076 47.9343L380.491 48.7459L380.51 48.759L380.528 48.7713L381.076 47.9343ZM388.867 58.1223L387.932 58.4795L388.522 60.0217L389.616 58.7847L388.867 58.1223ZM434.413 51.9296L433.628 52.5493L433.637 52.5607L433.646 52.5719L434.413 51.9296ZM440.606 162V163H441.606V162H440.606ZM408.643 162H407.643V163H408.643V162ZM406.845 68.9096L406.037 69.4978L406.067 69.5399L406.102 69.5786L406.845 68.9096ZM396.657 67.9108L396.974 68.8595L397.001 68.8502L397.029 68.8393L396.657 67.9108ZM391.064 70.9073L390.454 70.1147L390.064 70.4149V70.9073H391.064ZM391.064 162V163H392.064V162H391.064ZM359.501 162H358.501V163H359.501V162ZM341.722 70.9073L341.161 70.0794L340.722 70.3769V70.9073H341.722ZM341.722 162V163H342.722V162H341.722ZM309.76 162H308.76V163H309.76V162ZM309.76 47.536H341.722V45.536H309.76V47.536ZM340.722 46.536V55.7252H342.722V46.536H340.722ZM342.423 56.4384C349.966 49.0251 358.84 45.3386 369.09 45.3386V43.3386C358.298 43.3386 348.926 47.2431 341.021 55.0119L342.423 56.4384ZM369.09 45.3386C373.571 45.3386 377.355 46.4875 380.491 48.7459L381.66 47.1228C378.138 44.5868 373.931 43.3386 369.09 43.3386V45.3386ZM380.528 48.7713C383.786 50.9012 386.263 54.1133 387.932 58.4795L389.801 57.7652C388.007 53.0754 385.291 49.4955 381.623 47.0974L380.528 48.7713ZM389.616 58.7847C397.565 49.793 407.088 45.3386 418.232 45.3386V43.3386C406.47 43.3386 396.416 48.0733 388.117 57.46L389.616 58.7847ZM418.232 45.3386C424.737 45.3386 429.834 47.7433 433.628 52.5493L435.198 51.31C431.001 45.9946 425.311 43.3386 418.232 43.3386V45.3386ZM433.646 52.5719C437.579 57.2654 439.606 63.8023 439.606 72.3056H441.606C441.606 63.496 439.504 56.449 435.179 51.2874L433.646 52.5719ZM439.606 72.3056V162H441.606V72.3056H439.606ZM440.606 161H408.643V163H440.606V161ZM409.643 162V75.7016H407.643V162H409.643ZM409.643 75.7016C409.643 72.4333 409.041 69.8541 407.589 68.2407L406.102 69.5786C407.047 70.6287 407.643 72.5775 407.643 75.7016H409.643ZM407.654 68.3215C406.354 66.5332 404.346 65.7122 401.851 65.7122V67.7122C403.884 67.7122 405.206 68.3561 406.037 69.4978L407.654 68.3215ZM401.851 65.7122C400.214 65.7122 398.351 66.1562 396.286 66.9823L397.029 68.8393C398.959 68.0673 400.558 67.7122 401.851 67.7122V65.7122ZM396.341 66.9621C394.234 67.6646 392.271 68.7174 390.454 70.1147L391.674 71.6999C393.32 70.4336 395.086 69.4888 396.974 68.8595L396.341 66.9621ZM390.064 70.9073V72.3056H392.064V70.9073H390.064ZM390.064 72.3056V162H392.064V72.3056H390.064ZM391.064 161H359.501V163H391.064V161ZM360.501 162V75.7016H358.501V162H360.501ZM360.501 75.7016C360.501 72.6031 359.903 70.0953 358.543 68.3456C357.145 66.5483 355.071 65.7122 352.509 65.7122V67.7122C354.609 67.7122 356.031 68.3744 356.964 69.5735C357.934 70.8204 358.501 72.8072 358.501 75.7016H360.501ZM352.509 65.7122C349.157 65.7122 345.361 67.2345 341.161 70.0794L342.283 71.7352C346.34 68.9866 349.736 67.7122 352.509 67.7122V65.7122ZM340.722 70.9073V162H342.722V70.9073H340.722ZM341.722 161H309.76V163H341.722V161ZM310.76 162V46.536H308.76V162H310.76ZM506.486 0.190573V-0.809427H505.358L505.493 0.310685L506.486 0.190573ZM536.85 0.190573L537.845 0.0893998L537.754 -0.809427H536.85V0.190573ZM546.439 94.4795L545.444 94.5807L547.43 94.608L546.439 94.4795ZM558.624 0.390347V-0.609653H557.746L557.633 0.261908L558.624 0.390347ZM582.396 0.390347L583.387 0.254856L583.269 -0.609653H582.396V0.390347ZM595.181 93.8802L594.191 94.0157L596.176 93.9841L595.181 93.8802ZM604.97 0.190573V-0.809427H604.069L603.975 0.0866609L604.97 0.190573ZM634.935 0.190573L635.927 0.309476L636.061 -0.809427H634.935V0.190573ZM615.557 162V163H616.445L616.55 162.119L615.557 162ZM584.394 162L583.404 162.14L583.525 163H584.394V162ZM570.61 64.3151L571.6 64.1753L569.619 64.1833L570.61 64.3151ZM557.626 162V163H558.501L558.617 162.132L557.626 162ZM526.063 162L525.07 162.12L525.176 163H526.063V162ZM506.486 1.19057H536.85V-0.809427H506.486V1.19057ZM535.855 0.291746L545.444 94.5807L547.434 94.3783L537.845 0.0893998L535.855 0.291746ZM547.43 94.608L559.616 0.518786L557.633 0.261908L545.447 94.3511L547.43 94.608ZM558.624 1.39035H582.396V-0.609653H558.624V1.39035ZM581.406 0.525838L594.191 94.0157L596.172 93.7447L583.387 0.254856L581.406 0.525838ZM596.176 93.9841L605.964 0.294485L603.975 0.0866609L594.187 93.7763L596.176 93.9841ZM604.97 1.19057H634.935V-0.809427H604.97V1.19057ZM633.942 0.0716694L614.564 161.881L616.55 162.119L635.927 0.309476L633.942 0.0716694ZM615.557 161H584.394V163H615.557V161ZM585.384 161.86L571.6 64.1753L569.62 64.4548L583.404 162.14L585.384 161.86ZM569.619 64.1833L556.634 161.868L558.617 162.132L571.602 64.4468L569.619 64.1833ZM557.626 161H526.063V163H557.626V161ZM527.056 161.88L507.479 0.0704612L505.493 0.310685L525.07 162.12L527.056 161.88ZM650.769 0.190573V-0.809427H649.769V0.190573H650.769ZM683.131 0.190573H684.131V-0.809427H683.131V0.190573ZM683.131 56.724H682.131V59.1382L683.838 57.4311L683.131 56.724ZM727.079 52.1294L726.274 52.7227L726.282 52.7329L727.079 52.1294ZM732.673 162V163H733.673V162H732.673ZM700.311 162H699.311V163H700.311V162ZM698.713 69.7087L697.869 70.2456L697.898 70.2912L697.932 70.3334L698.713 69.7087ZM683.131 71.7063L682.582 70.8703L682.131 71.1665V71.7063H683.131ZM683.131 162V163H684.131V162H683.131ZM650.769 162H649.769V163H650.769V162ZM650.769 1.19057H683.131V-0.809427H650.769V1.19057ZM682.131 0.190573V56.724H684.131V0.190573H682.131ZM683.838 57.4311C691.788 49.4814 700.994 45.5384 711.497 45.5384V43.5384C700.426 43.5384 690.722 47.7191 682.424 56.0169L683.838 57.4311ZM711.497 45.5384C717.861 45.5384 722.746 47.9349 726.274 52.7226L727.884 51.5362C723.954 46.2025 718.452 43.5384 711.497 43.5384V45.5384ZM726.282 52.7329C729.845 57.4417 731.673 63.6697 731.673 71.5066H733.673C733.673 63.3623 731.771 56.6722 727.877 51.526L726.282 52.7329ZM731.673 71.5066V162H733.673V71.5066H731.673ZM732.673 161H700.311V163H732.673V161ZM701.311 162V76.1012H699.311V162H701.311ZM701.311 76.1012C701.311 73.0918 700.771 70.6815 699.493 69.084L697.932 70.3334C698.785 71.3995 699.311 73.2508 699.311 76.1012H701.311ZM699.556 69.1718C698.375 67.3152 696.314 66.5113 693.718 66.5113V68.5113C695.917 68.5113 697.186 69.1723 697.869 70.2456L699.556 69.1718ZM693.718 66.5113C690.624 66.5113 686.891 68.0425 682.582 70.8703L683.68 72.5424C687.894 69.7768 691.22 68.5113 693.718 68.5113V66.5113ZM682.131 71.7063V162H684.131V71.7063H682.131ZM683.131 161H650.769V163H683.131V161ZM651.769 162V0.190573H649.769V162H651.769ZM752.207 4.38564V3.38564H751.207V4.38564H752.207ZM784.969 4.38564H785.969V3.38564H784.969V4.38564ZM784.969 26.959V27.959H785.969V26.959H784.969ZM752.207 26.959H751.207V27.959H752.207V26.959ZM752.407 46.536V45.536H751.407V46.536H752.407ZM784.969 46.536H785.969V45.536H784.969V46.536ZM784.969 162V163H785.969V162H784.969ZM752.407 162H751.407V163H752.407V162ZM752.207 5.38564H784.969V3.38564H752.207V5.38564ZM783.969 4.38564V26.959H785.969V4.38564H783.969ZM784.969 25.959H752.207V27.959H784.969V25.959ZM753.207 26.959V4.38564H751.207V26.959H753.207ZM752.407 47.536H784.969V45.536H752.407V47.536ZM783.969 46.536V162H785.969V46.536H783.969ZM784.969 161H752.407V163H784.969V161ZM753.407 162V46.536H751.407V162H753.407ZM821.056 159.603L820.579 160.482L820.589 160.487L820.599 160.492L821.056 159.603ZM811.267 148.816L810.339 149.187L810.339 149.187L811.267 148.816ZM808.471 67.9108H809.471V66.9108H808.471V67.9108ZM797.284 67.9108H796.284V68.9108H797.284V67.9108ZM797.284 46.536V45.536H796.284V46.536H797.284ZM808.471 46.536V47.536H809.471V46.536H808.471ZM808.471 11.3774V10.3774H807.471V11.3774H808.471ZM841.432 11.3774H842.432V10.3774H841.432V11.3774ZM841.432 46.536H840.432V47.536H841.432V46.536ZM857.813 46.536H858.813V45.536H857.813V46.536ZM857.813 67.9108V68.9108H858.813V67.9108H857.813ZM841.432 67.9108V66.9108H840.432V67.9108H841.432ZM844.029 134.632L843.351 135.367L843.38 135.394L843.411 135.419L844.029 134.632ZM860.41 136.031H861.41V134.85L860.245 135.044L860.41 136.031ZM860.41 161.6L860.574 162.587L861.41 162.448V161.6H860.41ZM840.833 162.199C832.38 162.199 825.971 161.006 821.513 158.714L820.599 160.492C825.463 162.994 832.239 164.199 840.833 164.199V162.199ZM821.533 158.724C817.064 156.298 813.969 152.876 812.196 148.444L810.339 149.187C812.295 154.078 815.725 157.847 820.579 160.482L821.533 158.724ZM812.196 148.444C810.396 143.944 809.471 138.024 809.471 130.637H807.471C807.471 138.166 808.41 144.365 810.339 149.187L812.196 148.444ZM809.471 130.637V67.9108H807.471V130.637H809.471ZM808.471 66.9108H797.284V68.9108H808.471V66.9108ZM798.284 67.9108V46.536H796.284V67.9108H798.284ZM797.284 47.536H808.471V45.536H797.284V47.536ZM809.471 46.536V11.3774H807.471V46.536H809.471ZM808.471 12.3774H841.432V10.3774H808.471V12.3774ZM840.432 11.3774V46.536H842.432V11.3774H840.432ZM841.432 47.536H857.813V45.536H841.432V47.536ZM856.813 46.536V67.9108H858.813V46.536H856.813ZM857.813 66.9108H841.432V68.9108H857.813V66.9108ZM840.432 67.9108V127.441H842.432V67.9108H840.432ZM840.432 127.441C840.432 130.813 841.349 133.519 843.351 135.367L844.707 133.897C843.246 132.549 842.432 130.461 842.432 127.441H840.432ZM843.411 135.419C845.504 137.063 848.277 137.83 851.62 137.83V135.83C848.57 135.83 846.282 135.131 844.647 133.846L843.411 135.419ZM851.62 137.83C854.349 137.83 857.335 137.557 860.574 137.017L860.245 135.044C857.092 135.57 854.218 135.83 851.62 135.83V137.83ZM859.41 136.031V161.6H861.41V136.031H859.41ZM860.245 160.614C853.908 161.67 847.438 162.199 840.833 162.199V164.199C847.545 164.199 854.126 163.662 860.574 162.587L860.245 160.614ZM883.885 154.009L883.192 154.73L883.199 154.737L883.885 154.009ZM883.885 54.7264L884.571 55.4538L884.578 55.4469L883.885 54.7264ZM942.216 54.3268L942.931 53.627L942.931 53.627L942.216 54.3268ZM951.805 106.266V107.266H952.805V106.266H951.805ZM905.46 106.266V105.266H904.46V106.266H905.46ZM921.84 117.452V116.452H920.84V117.452H921.84ZM951.805 117.452H952.805V116.452H951.805V117.452ZM941.617 155.008L940.955 154.258L940.948 154.265L941.617 155.008ZM921.84 91.0835V92.0835H922.84V91.0835H921.84ZM919.443 70.5078L918.657 71.1256L918.681 71.1568L918.708 71.186L919.443 70.5078ZM907.457 70.7075L908.289 71.2622L908.289 71.2622L907.457 70.7075ZM905.46 91.0835H904.46V92.0835H905.46V91.0835ZM913.45 162.998C900.974 162.998 891.393 159.718 884.571 153.282L883.199 154.737C890.494 161.619 900.623 164.998 913.45 164.998V162.998ZM884.578 153.289C877.763 146.73 874.297 137.496 874.297 125.443H872.297C872.297 137.895 875.891 147.705 883.192 154.73L884.578 153.289ZM874.297 125.443V83.0929H872.297V125.443H874.297ZM874.297 83.0929C874.297 71.0392 877.763 61.8767 884.571 55.4537L883.199 53.999C875.89 60.8937 872.297 70.6422 872.297 83.0929H874.297ZM884.578 55.4469C891.401 48.882 900.979 45.5384 913.45 45.5384V43.5384C900.618 43.5384 890.486 46.9867 883.192 54.0058L884.578 55.4469ZM913.45 45.5384C926.076 45.5384 935.362 48.7591 941.502 55.0266L942.931 53.627C936.285 46.8433 926.395 43.5384 913.45 43.5384V45.5384ZM941.502 55.0266C947.65 61.3032 950.805 70.6005 950.805 83.0929H952.805C952.805 70.2818 949.567 60.4018 942.931 53.627L941.502 55.0266ZM950.805 83.0929V106.266H952.805V83.0929H950.805ZM951.805 105.266H905.46V107.266H951.805V105.266ZM904.46 106.266V128.44H906.46V106.266H904.46ZM904.46 128.44C904.46 132.643 905.132 135.969 906.617 138.271C908.151 140.648 910.481 141.825 913.45 141.825V139.825C911.092 139.825 909.427 138.938 908.298 137.186C907.119 135.36 906.46 132.493 906.46 128.44H904.46ZM913.45 141.825C916.491 141.825 918.917 140.796 920.543 138.628C922.128 136.514 922.84 133.463 922.84 129.638H920.84C920.84 133.271 920.154 135.813 918.943 137.428C917.772 138.989 916.003 139.825 913.45 139.825V141.825ZM922.84 129.638V117.452H920.84V129.638H922.84ZM921.84 118.452H951.805V116.452H921.84V118.452ZM950.805 117.452V128.639H952.805V117.452H950.805ZM950.805 128.639C950.805 140.024 947.475 148.505 940.955 154.258L942.279 155.758C949.343 149.525 952.805 140.427 952.805 128.639H950.805ZM940.948 154.265C934.529 160.042 925.41 162.998 913.45 162.998V164.998C925.728 164.998 935.387 161.961 942.286 155.752L940.948 154.265ZM922.84 91.0835V79.4972H920.84V91.0835H922.84ZM922.84 79.4972C922.84 75.1673 922.04 71.8463 920.178 69.8295L918.708 71.186C920.043 72.6318 920.84 75.3038 920.84 79.4972H922.84ZM920.229 69.8899C918.55 67.7522 916.178 66.7111 913.25 66.7111V68.7111C915.65 68.7111 917.407 69.5343 918.657 71.1256L920.229 69.8899ZM913.25 66.7111C910.407 66.7111 908.154 67.8595 906.625 70.1528L908.289 71.2622C909.424 69.5602 911.033 68.7111 913.25 68.7111V66.7111ZM906.625 70.1528C905.116 72.417 904.46 76.213 904.46 81.2951H906.46C906.46 76.2557 907.135 72.9933 908.289 71.2622L906.625 70.1528ZM904.46 81.2951V91.0835H906.46V81.2951H904.46ZM905.46 92.0835H921.84V90.0835H905.46V92.0835Z" fill="#BEB5B5"/>
</svg>
