<svg width="791" height="1095" viewBox="0 0 791 1095" fill="none" xmlns="http://www.w3.org/2000/svg">
<rect width="791" height="1095" fill="#E5E5E5"/>
<path d="M38.456 40.856H2.456V5.71998H121.688V40.856H86.264V239H38.456V40.856ZM142.849 5.71998H203.329C228.481 5.71998 247.393 10.328 260.065 19.544C272.737 28.76 279.073 44.696 279.073 67.352C279.073 82.52 276.961 94.808 272.737 104.216C268.513 113.432 261.025 120.44 250.273 125.24L282.529 239H233.857L207.361 133.304H190.081V239H142.849V5.71998ZM204.193 105.08C215.329 105.08 223.105 102.392 227.521 97.016C232.129 91.448 234.433 82.808 234.433 71.096C234.433 59.576 232.417 51.128 228.385 45.752C224.353 40.376 217.057 37.688 206.497 37.688H190.081V105.08H204.193ZM375.295 242.168C358.015 242.168 344.479 239.288 334.687 233.528C324.895 227.576 317.983 219.032 313.951 207.896C309.919 196.76 307.903 182.552 307.903 165.272V5.71998H354.559V171.896C354.559 183.032 355.903 191.768 358.591 198.104C361.279 204.44 366.847 207.608 375.295 207.608C383.743 207.608 389.311 204.44 391.999 198.104C394.687 191.768 396.031 183.032 396.031 171.896V5.71998H442.975V165.272C442.975 182.552 440.959 196.76 436.927 207.896C432.895 219.032 425.887 227.576 415.903 233.528C406.111 239.288 392.575 242.168 375.295 242.168ZM536.323 242.168C514.819 242.168 498.691 236.312 487.939 224.6C477.187 212.696 471.331 194.36 470.371 169.592L511.267 162.68C511.651 177.464 513.667 188.408 517.315 195.512C521.155 202.424 526.819 205.88 534.307 205.88C539.875 205.88 543.907 204.152 546.403 200.696C548.899 197.048 550.147 192.44 550.147 186.872C550.147 177.656 548.035 169.88 543.811 163.544C539.779 157.016 533.347 149.912 524.515 142.232L500.323 121.208C490.723 113.144 483.331 104.504 478.147 95.288C473.155 86.072 470.659 75.032 470.659 62.168C470.659 43.16 476.227 28.568 487.363 18.392C498.691 8.02399 514.243 2.83998 534.019 2.83998C555.139 2.83998 569.827 8.98399 578.083 21.272C586.339 33.368 591.043 48.824 592.195 67.64L551.011 73.688C550.627 61.4 549.187 52.376 546.691 46.616C544.387 40.664 539.682 37.688 532.578 37.688C527.395 37.688 523.363 39.704 520.483 43.736C517.603 47.576 516.163 52.184 516.163 57.56C516.163 65.24 517.795 71.768 521.059 77.144C524.515 82.328 529.891 88.088 537.187 94.424L560.803 115.16C571.939 124.952 580.675 135.32 587.011 146.264C593.347 157.016 596.515 169.688 596.515 184.28C596.515 195.416 594.019 205.4 589.027 214.232C584.035 222.872 576.931 229.688 567.715 234.68C558.691 239.672 548.227 242.168 536.323 242.168ZM643.425 40.856H607.425V5.71998H726.657V40.856H691.233V239H643.425V40.856ZM745.802 264.056C758.858 260.408 765.386 252.056 765.386 239H742.634V196.952H784.394V234.104C784.01 260.984 772.298 275.864 749.258 278.744L745.802 264.056ZM16.568 432.72H75.896C98.552 432.72 116.12 437.136 128.6 445.968C141.08 454.608 147.32 470.352 147.32 493.2C147.32 507.024 144.344 517.968 138.392 526.032C132.632 533.904 124.28 538.8 113.336 540.72C126.968 542.64 137.144 548.4 143.864 558C150.776 567.6 154.232 580.752 154.232 597.456C154.232 643.152 131.576 666 86.264 666H16.568V432.72ZM75.896 526.896C87.416 526.896 95.288 524.304 99.512 519.12C103.736 513.936 105.848 505.68 105.848 494.352C105.848 483.984 103.16 476.592 97.784 472.176C92.408 467.568 84.056 465.264 72.728 465.264H63.8V526.896H75.896ZM77.336 632.592C88.856 632.592 96.92 629.712 101.528 623.952C106.328 618.192 108.728 609.072 108.728 596.592C108.728 583.152 106.232 573.552 101.24 567.792C96.44 561.84 88.184 558.864 76.472 558.864H63.8V632.592H77.336ZM247.888 669.168C230.608 669.168 217.072 666.288 207.28 660.528C197.488 654.576 190.576 646.032 186.544 634.896C182.512 623.76 180.496 609.552 180.496 592.272V432.72H227.152V598.896C227.152 610.032 228.496 618.768 231.184 625.104C233.872 631.44 239.44 634.608 247.888 634.608C256.336 634.608 261.904 631.44 264.592 625.104C267.28 618.768 268.624 610.032 268.624 598.896V432.72H315.568V592.272C315.568 609.552 313.552 623.76 309.52 634.896C305.488 646.032 298.48 654.576 288.496 660.528C278.704 666.288 265.168 669.168 247.888 669.168ZM370.612 467.856H334.612V432.72H453.844V467.856H418.42V666H370.612V467.856Z" fill="#2A1D46"/>
<path d="M5.336 859.72H46.52L74.168 1021L100.088 859.72H143L98.648 1093H49.688L5.336 859.72ZM166.756 859.72H268.42V892.552H213.988V954.472H256.036V987.592H213.988V1060.74H268.996V1093H166.756V859.72ZM293.318 859.72H353.798C378.95 859.72 397.862 864.328 410.534 873.544C423.206 882.76 429.542 898.696 429.542 921.352C429.542 936.52 427.43 948.808 423.206 958.216C418.982 967.432 411.494 974.44 400.742 979.24L432.998 1093H384.326L357.83 987.304H340.55V1093H293.318V859.72ZM354.662 959.08C365.798 959.08 373.574 956.392 377.99 951.016C382.598 945.448 384.902 936.808 384.902 925.096C384.902 913.576 382.886 905.128 378.854 899.752C374.822 894.376 367.526 891.688 356.966 891.688H340.55V959.08H354.662ZM461.8 859.72H509.032V1093H461.8V859.72ZM544.474 859.72H642.97V892.264H591.706V955.048H635.194V988.168H591.706V1093H544.474V859.72ZM697.346 1000.55L651.842 859.72H696.482L721.538 941.8L744.578 859.72H788.066L743.138 1000.55V1093H697.346V1000.55Z" fill="#1E3572"/>
<path d="M38.456 40.856H40.456V38.856H38.456V40.856ZM2.456 40.856H0.456V42.856H2.456V40.856ZM2.456 5.71998V3.71998H0.456V5.71998H2.456ZM121.688 5.71998H123.688V3.71998H121.688V5.71998ZM121.688 40.856V42.856H123.688V40.856H121.688ZM86.264 40.856V38.856H84.264V40.856H86.264ZM86.264 239V241H88.264V239H86.264ZM38.456 239H36.456V241H38.456V239ZM38.456 38.856H2.456V42.856H38.456V38.856ZM4.456 40.856V5.71998H0.456V40.856H4.456ZM2.456 7.71998H121.688V3.71998H2.456V7.71998ZM119.688 5.71998V40.856H123.688V5.71998H119.688ZM121.688 38.856H86.264V42.856H121.688V38.856ZM84.264 40.856V239H88.264V40.856H84.264ZM86.264 237H38.456V241H86.264V237ZM40.456 239V40.856H36.456V239H40.456ZM142.849 5.71998V3.71998H140.849V5.71998H142.849ZM260.065 19.544L258.889 21.1615L258.889 21.1615L260.065 19.544ZM272.737 104.216L274.555 105.049L274.559 105.042L274.562 105.035L272.737 104.216ZM250.273 125.24L249.458 123.414L247.877 124.12L248.349 125.786L250.273 125.24ZM282.529 239V241H285.175L284.453 238.454L282.529 239ZM233.857 239L231.917 239.486L232.297 241H233.857V239ZM207.361 133.304L209.301 132.818L208.922 131.304H207.361V133.304ZM190.081 133.304V131.304H188.081V133.304H190.081ZM190.081 239V241H192.081V239H190.081ZM142.849 239H140.849V241H142.849V239ZM227.521 97.016L225.98 95.7408L225.976 95.7465L227.521 97.016ZM228.385 45.752L226.785 46.952L226.785 46.952L228.385 45.752ZM190.081 37.688V35.688H188.081V37.688H190.081ZM190.081 105.08H188.081V107.08H190.081V105.08ZM142.849 7.71998H203.329V3.71998H142.849V7.71998ZM203.329 7.71998C228.294 7.71998 246.71 12.3039 258.889 21.1615L261.242 17.9265C248.077 8.35207 228.668 3.71998 203.329 3.71998V7.71998ZM258.889 21.1615C270.84 29.8532 277.073 45.0341 277.073 67.352H281.073C281.073 44.3579 274.634 27.6668 261.242 17.9265L258.889 21.1615ZM277.073 67.352C277.073 82.3594 274.98 94.3382 270.913 103.397L274.562 105.035C278.943 95.2778 281.073 82.6806 281.073 67.352H277.073ZM270.919 103.383C266.93 112.087 259.842 118.778 249.458 123.414L251.089 127.066C262.208 122.102 270.097 114.777 274.555 105.049L270.919 103.383ZM248.349 125.786L280.605 239.546L284.453 238.454L252.197 124.694L248.349 125.786ZM282.529 237H233.857V241H282.529V237ZM235.797 238.514L209.301 132.818L205.421 133.79L231.917 239.486L235.797 238.514ZM207.361 131.304H190.081V135.304H207.361V131.304ZM188.081 133.304V239H192.081V133.304H188.081ZM190.081 237H142.849V241H190.081V237ZM144.849 239V5.71998H140.849V239H144.849ZM204.193 107.08C215.571 107.08 224.091 104.343 229.067 98.2855L225.976 95.7465C222.119 100.441 215.088 103.08 204.193 103.08V107.08ZM229.062 98.2911C234.102 92.2009 236.433 83.0043 236.433 71.096H232.433C232.433 82.6117 230.156 90.6951 225.98 95.7409L229.062 98.2911ZM236.433 71.096C236.433 59.4211 234.405 50.4449 229.985 44.552L226.785 46.952C230.43 51.8111 232.433 59.7309 232.433 71.096H236.433ZM229.985 44.552C225.4 38.4382 217.321 35.688 206.497 35.688V39.688C216.793 39.688 223.307 42.3138 226.785 46.952L229.985 44.552ZM206.497 35.688H190.081V39.688H206.497V35.688ZM188.081 37.688V105.08H192.081V37.688H188.081ZM190.081 107.08H204.193V103.08H190.081V107.08ZM334.687 233.528L333.648 235.237L333.66 235.245L333.672 235.252L334.687 233.528ZM313.951 207.896L315.831 207.215L315.831 207.215L313.951 207.896ZM307.903 5.71998V3.71998H305.903V5.71998H307.903ZM354.559 5.71998H356.559V3.71998H354.559V5.71998ZM358.591 198.104L356.749 198.885L356.749 198.885L358.591 198.104ZM391.999 198.104L390.157 197.323L390.157 197.323L391.999 198.104ZM396.031 5.71998V3.71998H394.031V5.71998H396.031ZM442.975 5.71998H444.975V3.71998H442.975V5.71998ZM436.927 207.896L435.046 207.215L435.046 207.215L436.927 207.896ZM415.903 233.528L416.917 235.252L416.927 235.246L415.903 233.528ZM375.295 240.168C358.2 240.168 345.065 237.313 335.701 231.804L333.672 235.252C343.892 241.263 357.829 244.168 375.295 244.168V240.168ZM335.725 231.819C326.337 226.112 319.713 217.938 315.831 207.215L312.07 208.577C316.252 220.126 323.452 229.04 333.648 235.237L335.725 231.819ZM315.831 207.215C311.905 196.373 309.903 182.417 309.903 165.272H305.903C305.903 182.687 307.932 197.147 312.07 208.577L315.831 207.215ZM309.903 165.272V5.71998H305.903V165.272H309.903ZM307.903 7.71998H354.559V3.71998H307.903V7.71998ZM352.559 5.71998V171.896H356.559V5.71998H352.559ZM352.559 171.896C352.559 183.155 353.912 192.196 356.749 198.885L360.432 197.323C357.893 191.34 356.559 182.909 356.559 171.896H352.559ZM356.749 198.885C358.251 202.425 360.599 205.153 363.793 206.97C366.96 208.772 370.831 209.608 375.295 209.608V205.608C371.31 205.608 368.173 204.86 365.772 203.494C363.398 202.143 361.618 200.119 360.432 197.323L356.749 198.885ZM375.295 209.608C379.758 209.608 383.629 208.772 386.796 206.97C389.99 205.153 392.338 202.425 393.84 198.885L390.157 197.323C388.971 200.119 387.191 202.143 384.817 203.494C382.416 204.86 379.279 205.608 375.295 205.608V209.608ZM393.84 198.885C396.677 192.196 398.031 183.155 398.031 171.896H394.031C394.031 182.909 392.696 191.34 390.157 197.323L393.84 198.885ZM398.031 171.896V5.71998H394.031V171.896H398.031ZM396.031 7.71998H442.975V3.71998H396.031V7.71998ZM440.975 5.71998V165.272H444.975V5.71998H440.975ZM440.975 165.272C440.975 182.417 438.972 196.373 435.046 207.215L438.807 208.577C442.945 197.147 444.975 182.687 444.975 165.272H440.975ZM435.046 207.215C431.168 217.926 424.458 226.099 414.878 231.81L416.927 235.246C427.315 229.053 434.621 220.138 438.807 208.577L435.046 207.215ZM414.888 231.804C405.524 237.313 392.389 240.168 375.295 240.168V244.168C392.76 244.168 406.697 241.263 416.917 235.252L414.888 231.804ZM487.939 224.6L486.454 225.941L486.46 225.947L486.465 225.953L487.939 224.6ZM470.371 169.592L470.037 167.62L468.304 167.913L468.372 169.669L470.371 169.592ZM511.267 162.68L513.266 162.628L513.206 160.324L510.933 160.708L511.267 162.68ZM517.315 195.512L515.535 196.426L515.55 196.455L515.566 196.483L517.315 195.512ZM546.403 200.696L548.024 201.867L548.039 201.846L548.053 201.825L546.403 200.696ZM543.811 163.544L542.109 164.595L542.127 164.625L542.146 164.653L543.811 163.544ZM524.515 142.232L525.827 140.723L525.826 140.722L524.515 142.232ZM500.323 121.208L501.634 119.698L501.622 119.687L501.609 119.677L500.323 121.208ZM478.147 95.288L476.388 96.2406L476.396 96.2546L476.403 96.2685L478.147 95.288ZM487.363 18.392L488.712 19.8684L488.713 19.8673L487.363 18.392ZM578.083 21.272L576.422 22.3874L576.426 22.3934L576.431 22.3995L578.083 21.272ZM592.195 67.64L592.485 69.6188L594.303 69.3518L594.191 67.5178L592.195 67.64ZM551.011 73.688L549.011 73.7505L549.082 75.9927L551.301 75.6668L551.011 73.688ZM546.691 46.616L544.825 47.338L544.84 47.3749L544.855 47.4112L546.691 46.616ZM520.483 43.736L522.083 44.936L522.096 44.9174L522.11 44.8985L520.483 43.736ZM521.059 77.144L519.349 78.1819L519.371 78.2181L519.394 78.2534L521.059 77.144ZM537.187 94.424L538.506 92.9211L538.498 92.9139L537.187 94.424ZM560.803 115.16L562.123 113.658L562.122 113.657L560.803 115.16ZM587.011 146.264L585.28 147.266L585.284 147.273L585.287 147.279L587.011 146.264ZM589.027 214.232L590.758 215.233L590.763 215.224L590.768 215.216L589.027 214.232ZM567.715 234.68L566.762 232.921L566.754 232.926L566.746 232.93L567.715 234.68ZM536.323 240.168C515.173 240.168 499.665 234.416 489.412 223.247L486.465 225.953C497.716 238.208 514.464 244.168 536.323 244.168V240.168ZM489.423 223.259C479.116 211.849 473.32 194.057 472.369 169.515L468.372 169.669C469.341 194.663 475.257 213.543 486.454 225.941L489.423 223.259ZM470.704 171.564L511.6 164.652L510.933 160.708L470.037 167.62L470.704 171.564ZM509.267 162.732C509.653 177.602 511.678 188.914 515.535 196.426L519.094 194.598C515.655 187.902 513.648 177.326 513.266 162.628L509.267 162.732ZM515.566 196.483C517.622 200.184 520.222 203.055 523.401 204.995C526.585 206.938 530.243 207.88 534.307 207.88V203.88C530.882 203.88 527.964 203.094 525.484 201.581C522.999 200.065 520.847 197.752 519.063 194.541L515.566 196.483ZM534.307 207.88C540.3 207.88 545.041 205.997 548.024 201.867L544.781 199.525C542.772 202.307 539.449 203.88 534.307 203.88V207.88ZM548.053 201.825C550.83 197.768 552.147 192.738 552.147 186.872H548.147C548.147 192.142 546.968 196.328 544.752 199.567L548.053 201.825ZM552.147 186.872C552.147 177.345 549.96 169.163 545.475 162.435L542.146 164.653C546.109 170.597 548.147 177.967 548.147 186.872H552.147ZM545.512 162.493C541.334 155.729 534.74 148.473 525.827 140.723L523.202 143.741C531.953 151.351 538.223 158.303 542.109 164.595L545.512 162.493ZM525.826 140.722L501.634 119.698L499.011 122.718L523.203 143.742L525.826 140.722ZM501.609 119.677C492.16 111.739 484.936 103.279 479.89 94.3075L476.403 96.2685C481.725 105.729 489.285 114.549 499.036 122.739L501.609 119.677ZM479.905 94.3354C475.104 85.4713 472.659 74.7741 472.659 62.168H468.659C468.659 75.2899 471.205 86.6727 476.388 96.2406L479.905 94.3354ZM472.659 62.168C472.659 43.5656 478.093 29.5716 488.712 19.8684L486.013 16.9156C474.36 27.5643 468.659 42.7544 468.659 62.168H472.659ZM488.713 19.8673C499.576 9.92518 514.594 4.83998 534.019 4.83998V0.839985C513.891 0.839985 497.805 6.12279 486.012 16.9166L488.713 19.8673ZM534.019 4.83998C554.779 4.83998 568.681 10.8657 576.422 22.3874L579.743 20.1566C570.972 7.10223 555.498 0.839985 534.019 0.839985V4.83998ZM576.431 22.3995C584.433 34.1235 589.062 49.2048 590.198 67.7622L594.191 67.5178C593.023 48.4432 588.244 32.6125 579.734 20.1445L576.431 22.3995ZM591.904 65.6612L550.72 71.7092L551.301 75.6668L592.485 69.6188L591.904 65.6612ZM553.01 73.6255C552.624 61.2799 551.178 51.9415 548.526 45.8208L544.855 47.4112C547.195 52.8105 548.629 61.5201 549.011 73.7505L553.01 73.6255ZM548.556 45.894C547.273 42.5793 545.27 39.9796 542.504 38.2298C539.754 36.4904 536.406 35.688 532.578 35.688V39.688C535.855 39.688 538.411 40.3735 540.365 41.6101C542.303 42.8364 543.804 44.7006 544.825 47.338L548.556 45.894ZM532.578 35.688C526.784 35.688 522.13 37.9879 518.855 42.5735L522.11 44.8985C524.595 41.4201 528.005 39.688 532.578 39.688V35.688ZM518.883 42.536C515.712 46.7634 514.163 51.8058 514.163 57.56H518.163C518.163 52.5622 519.493 48.3886 522.083 44.936L518.883 42.536ZM514.163 57.56C514.163 65.5251 515.857 72.4304 519.349 78.1819L522.768 76.106C519.732 71.1056 518.163 64.9549 518.163 57.56H514.163ZM519.394 78.2534C522.988 83.6442 528.51 89.5377 535.875 95.9341L538.498 92.9139C531.271 86.6383 526.041 81.0118 522.723 76.0346L519.394 78.2534ZM535.867 95.9269L559.483 116.663L562.122 113.657L538.506 92.9211L535.867 95.9269ZM559.482 116.662C570.482 126.335 579.069 136.539 585.28 147.266L588.741 145.262C582.28 134.101 573.395 123.569 562.123 113.658L559.482 116.662ZM585.287 147.279C591.413 157.675 594.515 169.984 594.515 184.28H598.515C598.515 169.392 595.28 156.357 588.734 145.249L585.287 147.279ZM594.515 184.28C594.515 195.106 592.091 204.745 587.285 213.248L590.768 215.216C595.946 206.055 598.515 195.726 598.515 184.28H594.515ZM587.295 213.231C582.497 221.535 575.67 228.096 566.762 232.921L568.667 236.439C578.191 231.28 585.572 224.209 590.758 215.233L587.295 213.231ZM566.746 232.93C558.062 237.734 547.941 240.168 536.323 240.168V244.168C548.512 244.168 559.319 241.61 568.683 236.43L566.746 232.93ZM643.425 40.856H645.425V38.856H643.425V40.856ZM607.425 40.856H605.425V42.856H607.425V40.856ZM607.425 5.71998V3.71998H605.425V5.71998H607.425ZM726.657 5.71998H728.657V3.71998H726.657V5.71998ZM726.657 40.856V42.856H728.657V40.856H726.657ZM691.233 40.856V38.856H689.233V40.856H691.233ZM691.233 239V241H693.233V239H691.233ZM643.425 239H641.425V241H643.425V239ZM643.425 38.856H607.425V42.856H643.425V38.856ZM609.425 40.856V5.71998H605.425V40.856H609.425ZM607.425 7.71998H726.657V3.71998H607.425V7.71998ZM724.657 5.71998V40.856H728.657V5.71998H724.657ZM726.657 38.856H691.233V42.856H726.657V38.856ZM689.233 40.856V239H693.233V40.856H689.233ZM691.233 237H643.425V241H691.233V237ZM645.425 239V40.856H641.425V239H645.425ZM745.802 264.056L745.264 262.13L743.416 262.646L743.855 264.514L745.802 264.056ZM765.386 239H767.386V237H765.386V239ZM742.634 239H740.634V241H742.634V239ZM742.634 196.952V194.952H740.634V196.952H742.634ZM784.394 196.952H786.394V194.952H784.394V196.952ZM784.394 234.104L786.394 234.133L786.394 234.118V234.104H784.394ZM749.258 278.744L747.311 279.202L747.723 280.951L749.506 280.729L749.258 278.744ZM746.34 265.982C753.164 264.076 758.474 260.883 762.066 256.288C765.664 251.685 767.386 245.868 767.386 239H763.386C763.386 245.188 761.844 250.075 758.914 253.824C755.978 257.581 751.496 260.388 745.264 262.13L746.34 265.982ZM765.386 237H742.634V241H765.386V237ZM744.634 239V196.952H740.634V239H744.634ZM742.634 198.952H784.394V194.952H742.634V198.952ZM782.394 196.952V234.104H786.394V196.952H782.394ZM782.394 234.075C782.206 247.256 779.242 257.21 773.75 264.187C768.291 271.124 760.133 275.369 749.01 276.759L749.506 280.729C761.423 279.239 770.641 274.604 776.894 266.661C783.114 258.758 786.198 247.832 786.394 234.133L782.394 234.075ZM751.205 278.286L747.749 263.598L743.855 264.514L747.311 279.202L751.205 278.286ZM16.568 432.72V430.72H14.568V432.72H16.568ZM128.6 445.968L127.445 447.601L127.453 447.606L127.462 447.612L128.6 445.968ZM138.392 526.032L136.783 524.844L136.778 524.851L138.392 526.032ZM113.336 540.72L112.99 538.75L113.057 542.7L113.336 540.72ZM143.864 558L142.226 559.147L142.233 559.158L142.241 559.169L143.864 558ZM16.568 666H14.568V668H16.568V666ZM99.512 519.12L97.9615 517.857L97.9615 517.857L99.512 519.12ZM97.784 472.176L96.4824 473.695L96.4983 473.708L96.5145 473.721L97.784 472.176ZM63.8 465.264V463.264H61.8V465.264H63.8ZM63.8 526.896H61.8V528.896H63.8V526.896ZM101.528 623.952L99.9916 622.672L99.9788 622.687L99.9663 622.703L101.528 623.952ZM101.24 567.792L99.6832 569.047L99.7054 569.075L99.7286 569.102L101.24 567.792ZM63.8 558.864V556.864H61.8V558.864H63.8ZM63.8 632.592H61.8V634.592H63.8V632.592ZM16.568 434.72H75.896V430.72H16.568V434.72ZM75.896 434.72C98.3273 434.72 115.43 439.098 127.445 447.601L129.755 444.335C116.81 435.174 98.7767 430.72 75.896 430.72V434.72ZM127.462 447.612C139.168 455.717 145.32 470.66 145.32 493.2H149.32C149.32 470.044 142.992 453.499 129.738 444.324L127.462 447.612ZM145.32 493.2C145.32 506.755 142.401 517.233 136.783 524.844L140.001 527.22C146.287 518.703 149.32 507.293 149.32 493.2H145.32ZM136.778 524.851C131.366 532.247 123.502 536.906 112.99 538.75L113.682 542.69C125.058 540.694 133.898 535.561 140.006 527.213L136.778 524.851ZM113.057 542.7C126.245 544.558 135.879 550.081 142.226 559.147L145.502 556.853C138.409 546.719 127.692 540.722 113.615 538.74L113.057 542.7ZM142.241 559.169C148.825 568.314 152.232 581.004 152.232 597.456H156.232C156.232 580.5 152.727 566.886 145.487 556.831L142.241 559.169ZM152.232 597.456C152.232 620 146.644 636.54 135.82 647.456C124.999 658.369 108.607 664 86.264 664V668C109.233 668 126.825 662.207 138.66 650.272C150.492 638.34 156.232 620.608 156.232 597.456H152.232ZM86.264 664H16.568V668H86.264V664ZM18.568 666V432.72H14.568V666H18.568ZM75.896 528.896C87.599 528.896 96.2562 526.282 101.062 520.383L97.9615 517.857C94.3198 522.326 87.233 524.896 75.896 524.896V528.896ZM101.062 520.383C105.719 514.668 107.848 505.849 107.848 494.352H103.848C103.848 505.511 101.753 513.204 97.9615 517.857L101.062 520.383ZM107.848 494.352C107.848 483.686 105.082 475.583 99.0535 470.631L96.5145 473.721C101.238 477.601 103.848 484.282 103.848 494.352H107.848ZM99.0856 470.657C93.1847 465.6 84.2638 463.264 72.728 463.264V467.264C83.8482 467.264 91.6314 469.536 96.4824 473.695L99.0856 470.657ZM72.728 463.264H63.8V467.264H72.728V463.264ZM61.8 465.264V526.896H65.8V465.264H61.8ZM63.8 528.896H75.896V524.896H63.8V528.896ZM77.336 634.592C89.1196 634.592 97.9297 631.651 103.09 625.201L99.9663 622.703C95.9103 627.773 88.5924 630.592 77.336 630.592V634.592ZM103.064 625.232C108.307 618.941 110.728 609.253 110.728 596.592H106.728C106.728 608.891 104.349 617.443 99.9916 622.672L103.064 625.232ZM110.728 596.592C110.728 583.003 108.223 572.796 102.751 566.482L99.7286 569.102C104.241 574.308 106.728 583.301 106.728 596.592H110.728ZM102.797 566.536C97.4511 559.908 88.4625 556.864 76.472 556.864V560.864C87.9055 560.864 95.4289 563.772 99.6832 569.047L102.797 566.536ZM76.472 556.864H63.8V560.864H76.472V556.864ZM61.8 558.864V632.592H65.8V558.864H61.8ZM63.8 634.592H77.336V630.592H63.8V634.592ZM207.28 660.528L206.241 662.237L206.254 662.245L206.266 662.252L207.28 660.528ZM186.544 634.896L188.425 634.215L188.425 634.215L186.544 634.896ZM180.496 432.72V430.72H178.496V432.72H180.496ZM227.152 432.72H229.152V430.72H227.152V432.72ZM231.184 625.104L229.343 625.885L229.343 625.885L231.184 625.104ZM264.592 625.104L262.751 624.323L262.751 624.323L264.592 625.104ZM268.624 432.72V430.72H266.624V432.72H268.624ZM315.568 432.72H317.568V430.72H315.568V432.72ZM309.52 634.896L307.64 634.215L307.64 634.215L309.52 634.896ZM288.496 660.528L289.51 662.252L289.52 662.246L288.496 660.528ZM247.888 667.168C230.793 667.168 217.659 664.313 208.294 658.804L206.266 662.252C216.486 668.263 230.423 671.168 247.888 671.168V667.168ZM208.319 658.819C198.931 653.112 192.307 644.938 188.425 634.215L184.664 635.577C188.845 647.126 196.046 656.04 206.241 662.237L208.319 658.819ZM188.425 634.215C184.499 623.373 182.496 609.417 182.496 592.272H178.496C178.496 609.687 180.525 624.147 184.664 635.577L188.425 634.215ZM182.496 592.272V432.72H178.496V592.272H182.496ZM180.496 434.72H227.152V430.72H180.496V434.72ZM225.152 432.72V598.896H229.152V432.72H225.152ZM225.152 598.896C225.152 610.155 226.505 619.196 229.343 625.885L233.025 624.323C230.487 618.34 229.152 609.909 229.152 598.896H225.152ZM229.343 625.885C230.845 629.425 233.193 632.153 236.387 633.97C239.554 635.772 243.425 636.608 247.888 636.608V632.608C243.904 632.608 240.767 631.86 238.365 630.494C235.992 629.143 234.212 627.119 233.025 624.323L229.343 625.885ZM247.888 636.608C252.352 636.608 256.223 635.772 259.389 633.97C262.584 632.153 264.932 629.425 266.433 625.885L262.751 624.323C261.565 627.119 259.785 629.143 257.411 630.494C255.01 631.86 251.873 632.608 247.888 632.608V636.608ZM266.433 625.885C269.271 619.196 270.624 610.155 270.624 598.896H266.624C266.624 609.909 265.289 618.34 262.751 624.323L266.433 625.885ZM270.624 598.896V432.72H266.624V598.896H270.624ZM268.624 434.72H315.568V430.72H268.624V434.72ZM313.568 432.72V592.272H317.568V432.72H313.568ZM313.568 592.272C313.568 609.417 311.565 623.373 307.64 634.215L311.401 635.577C315.539 624.147 317.568 609.687 317.568 592.272H313.568ZM307.64 634.215C303.762 644.926 297.051 653.099 287.472 658.81L289.52 662.246C299.909 656.053 307.215 647.138 311.401 635.577L307.64 634.215ZM287.482 658.804C278.118 664.313 264.983 667.168 247.888 667.168V671.168C265.353 671.168 279.291 668.263 289.51 662.252L287.482 658.804ZM370.612 467.856H372.612V465.856H370.612V467.856ZM334.612 467.856H332.612V469.856H334.612V467.856ZM334.612 432.72V430.72H332.612V432.72H334.612ZM453.844 432.72H455.844V430.72H453.844V432.72ZM453.844 467.856V469.856H455.844V467.856H453.844ZM418.42 467.856V465.856H416.42V467.856H418.42ZM418.42 666V668H420.42V666H418.42ZM370.612 666H368.612V668H370.612V666ZM370.612 465.856H334.612V469.856H370.612V465.856ZM336.612 467.856V432.72H332.612V467.856H336.612ZM334.612 434.72H453.844V430.72H334.612V434.72ZM451.844 432.72V467.856H455.844V432.72H451.844ZM453.844 465.856H418.42V469.856H453.844V465.856ZM416.42 467.856V666H420.42V467.856H416.42ZM418.42 664H370.612V668H418.42V664ZM372.612 666V467.856H368.612V666H372.612ZM5.336 859.72V857.72H2.91993L3.3712 860.094L5.336 859.72ZM46.52 859.72L48.4912 859.382L48.2063 857.72H46.52V859.72ZM74.168 1021L72.1968 1021.34L76.1427 1021.32L74.168 1021ZM100.088 859.72V857.72H98.3838L98.1133 859.403L100.088 859.72ZM143 859.72L144.965 860.094L145.416 857.72H143V859.72ZM98.648 1093V1095H100.304L100.613 1093.37L98.648 1093ZM49.688 1093L47.7232 1093.37L48.0324 1095H49.688V1093ZM5.336 861.72H46.52V857.72H5.336V861.72ZM44.5488 860.058L72.1968 1021.34L76.1392 1020.66L48.4912 859.382L44.5488 860.058ZM76.1427 1021.32L102.063 860.037L98.1133 859.403L72.1933 1020.68L76.1427 1021.32ZM100.088 861.72H143V857.72H100.088V861.72ZM141.035 859.346L96.6832 1092.63L100.613 1093.37L144.965 860.094L141.035 859.346ZM98.648 1091H49.688V1095H98.648V1091ZM51.6528 1092.63L7.3008 859.346L3.3712 860.094L47.7232 1093.37L51.6528 1092.63ZM166.756 859.72V857.72H164.756V859.72H166.756ZM268.42 859.72H270.42V857.72H268.42V859.72ZM268.42 892.552V894.552H270.42V892.552H268.42ZM213.988 892.552V890.552H211.988V892.552H213.988ZM213.988 954.472H211.988V956.472H213.988V954.472ZM256.036 954.472H258.036V952.472H256.036V954.472ZM256.036 987.592V989.592H258.036V987.592H256.036ZM213.988 987.592V985.592H211.988V987.592H213.988ZM213.988 1060.74H211.988V1062.74H213.988V1060.74ZM268.996 1060.74H270.996V1058.74H268.996V1060.74ZM268.996 1093V1095H270.996V1093H268.996ZM166.756 1093H164.756V1095H166.756V1093ZM166.756 861.72H268.42V857.72H166.756V861.72ZM266.42 859.72V892.552H270.42V859.72H266.42ZM268.42 890.552H213.988V894.552H268.42V890.552ZM211.988 892.552V954.472H215.988V892.552H211.988ZM213.988 956.472H256.036V952.472H213.988V956.472ZM254.036 954.472V987.592H258.036V954.472H254.036ZM256.036 985.592H213.988V989.592H256.036V985.592ZM211.988 987.592V1060.74H215.988V987.592H211.988ZM213.988 1062.74H268.996V1058.74H213.988V1062.74ZM266.996 1060.74V1093H270.996V1060.74H266.996ZM268.996 1091H166.756V1095H268.996V1091ZM168.756 1093V859.72H164.756V1093H168.756ZM293.318 859.72V857.72H291.318V859.72H293.318ZM410.534 873.544L409.358 875.161L409.358 875.161L410.534 873.544ZM423.206 958.216L425.024 959.049L425.027 959.042L425.031 959.035L423.206 958.216ZM400.742 979.24L399.927 977.414L398.345 978.12L398.818 979.786L400.742 979.24ZM432.998 1093V1095H435.644L434.922 1092.45L432.998 1093ZM384.326 1093L382.386 1093.49L382.765 1095H384.326V1093ZM357.83 987.304L359.77 986.818L359.391 985.304H357.83V987.304ZM340.55 987.304V985.304H338.55V987.304H340.55ZM340.55 1093V1095H342.55V1093H340.55ZM293.318 1093H291.318V1095H293.318V1093ZM377.99 951.016L376.449 949.741L376.445 949.747L377.99 951.016ZM378.854 899.752L377.254 900.952L377.254 900.952L378.854 899.752ZM340.55 891.688V889.688H338.55V891.688H340.55ZM340.55 959.08H338.55V961.08H340.55V959.08ZM293.318 861.72H353.798V857.72H293.318V861.72ZM353.798 861.72C378.763 861.72 397.179 866.304 409.358 875.161L411.71 871.927C398.545 862.352 379.137 857.72 353.798 857.72V861.72ZM409.358 875.161C421.309 883.853 427.542 899.034 427.542 921.352H431.542C431.542 898.358 425.103 881.667 411.71 871.927L409.358 875.161ZM427.542 921.352C427.542 936.359 425.449 948.338 421.381 957.397L425.031 959.035C429.411 949.278 431.542 936.681 431.542 921.352H427.542ZM421.388 957.383C417.399 966.087 410.311 972.778 399.927 977.414L401.557 981.066C412.677 976.102 420.565 968.777 425.024 959.049L421.388 957.383ZM398.818 979.786L431.074 1093.55L434.922 1092.45L402.666 978.694L398.818 979.786ZM432.998 1091H384.326V1095H432.998V1091ZM386.266 1092.51L359.77 986.818L355.89 987.79L382.386 1093.49L386.266 1092.51ZM357.83 985.304H340.55V989.304H357.83V985.304ZM338.55 987.304V1093H342.55V987.304H338.55ZM340.55 1091H293.318V1095H340.55V1091ZM295.318 1093V859.72H291.318V1093H295.318ZM354.662 961.08C366.04 961.08 374.56 958.343 379.535 952.285L376.445 949.747C372.588 954.441 365.556 957.08 354.662 957.08V961.08ZM379.531 952.291C384.571 946.201 386.902 937.004 386.902 925.096H382.902C382.902 936.612 380.625 944.695 376.449 949.741L379.531 952.291ZM386.902 925.096C386.902 913.421 384.874 904.445 380.454 898.552L377.254 900.952C380.898 905.811 382.902 913.731 382.902 925.096H386.902ZM380.454 898.552C375.869 892.438 367.79 889.688 356.966 889.688V893.688C367.262 893.688 373.775 896.314 377.254 900.952L380.454 898.552ZM356.966 889.688H340.55V893.688H356.966V889.688ZM338.55 891.688V959.08H342.55V891.688H338.55ZM340.55 961.08H354.662V957.08H340.55V961.08ZM461.8 859.72V857.72H459.8V859.72H461.8ZM509.032 859.72H511.032V857.72H509.032V859.72ZM509.032 1093V1095H511.032V1093H509.032ZM461.8 1093H459.8V1095H461.8V1093ZM461.8 861.72H509.032V857.72H461.8V861.72ZM507.032 859.72V1093H511.032V859.72H507.032ZM509.032 1091H461.8V1095H509.032V1091ZM463.8 1093V859.72H459.8V1093H463.8ZM544.474 859.72V857.72H542.474V859.72H544.474ZM642.97 859.72H644.97V857.72H642.97V859.72ZM642.97 892.264V894.264H644.97V892.264H642.97ZM591.706 892.264V890.264H589.706V892.264H591.706ZM591.706 955.048H589.706V957.048H591.706V955.048ZM635.194 955.048H637.194V953.048H635.194V955.048ZM635.194 988.168V990.168H637.194V988.168H635.194ZM591.706 988.168V986.168H589.706V988.168H591.706ZM591.706 1093V1095H593.706V1093H591.706ZM544.474 1093H542.474V1095H544.474V1093ZM544.474 861.72H642.97V857.72H544.474V861.72ZM640.97 859.72V892.264H644.97V859.72H640.97ZM642.97 890.264H591.706V894.264H642.97V890.264ZM589.706 892.264V955.048H593.706V892.264H589.706ZM591.706 957.048H635.194V953.048H591.706V957.048ZM633.194 955.048V988.168H637.194V955.048H633.194ZM635.194 986.168H591.706V990.168H635.194V986.168ZM589.706 988.168V1093H593.706V988.168H589.706ZM591.706 1091H544.474V1095H591.706V1091ZM546.474 1093V859.72H542.474V1093H546.474ZM697.346 1000.55H699.346V1000.24L699.249 999.937L697.346 1000.55ZM651.842 859.72V857.72H649.094L649.939 860.335L651.842 859.72ZM696.482 859.72L698.395 859.136L697.963 857.72H696.482V859.72ZM721.538 941.8L719.625 942.384L721.618 948.914L723.464 942.341L721.538 941.8ZM744.578 859.72V857.72H743.062L742.652 859.179L744.578 859.72ZM788.066 859.72L789.971 860.328L790.803 857.72H788.066V859.72ZM743.138 1000.55L741.233 999.944L741.138 1000.24V1000.55H743.138ZM743.138 1093V1095H745.138V1093H743.138ZM697.346 1093H695.346V1095H697.346V1093ZM699.249 999.937L653.745 859.105L649.939 860.335L695.443 1001.17L699.249 999.937ZM651.842 861.72H696.482V857.72H651.842V861.72ZM694.569 860.304L719.625 942.384L723.451 941.216L698.395 859.136L694.569 860.304ZM723.464 942.341L746.504 860.26L742.652 859.179L719.612 941.259L723.464 942.341ZM744.578 861.72H788.066V857.72H744.578V861.72ZM786.161 859.112L741.233 999.944L745.043 1001.16L789.971 860.328L786.161 859.112ZM741.138 1000.55V1093H745.138V1000.55H741.138ZM743.138 1091H697.346V1095H743.138V1091ZM699.346 1093V1000.55H695.346V1093H699.346Z" fill="#8B158D"/>
</svg>
